<?xml version="1.0" encoding="UTF-8"?>
<!DOCTYPE svg PUBLIC "-//W3C//DTD SVG 1.1//EN" "http://www.w3.org/Graphics/SVG/1.1/DTD/svg11.dtd">
<svg xmlns="http://www.w3.org/2000/svg" xmlns:xlink="http://www.w3.org/1999/xlink" version="1.1" width="615px" height="260px" viewBox="-0.5 -0.5 615 260"><defs/><g><path d="M 122 127 Q 172 82 167 57 Q 162 32 122 12" fill="none" stroke="#000000" stroke-miterlimit="10" pointer-events="stroke"/><rect x="45" y="57" width="30" height="10" fill="#ffffff" stroke="#000000" pointer-events="all"/><path d="M 52.5 67 L 52.5 57" fill="none" stroke="#000000" stroke-miterlimit="10" pointer-events="stroke"/><path d="M 60 67 L 60 57" fill="none" stroke="#000000" stroke-miterlimit="10" pointer-events="stroke"/><path d="M 67.5 67 L 67.5 57" fill="none" stroke="#000000" stroke-miterlimit="10" pointer-events="stroke"/><ellipse cx="92" cy="62" rx="10" ry="10" fill="#ffffff" stroke="#000000" pointer-events="all"/><ellipse cx="142" cy="27" rx="10" ry="10" fill="#97d077" stroke="#000000" pointer-events="all"/><ellipse cx="165" cy="69" rx="10" ry="10" fill="#ea6b66" stroke="#000000" pointer-events="all"/><ellipse cx="142" cy="107" rx="10" ry="10" fill="#7ea6e0" stroke="#000000" pointer-events="all"/><path d="M 102 59 L 134.93 34.07" fill="none" stroke="#000000" stroke-width="2" stroke-miterlimit="10" stroke-dasharray="2 6" pointer-events="stroke"/><path d="M 102 62 L 155 69" fill="none" stroke="#000000" stroke-width="2" stroke-miterlimit="10" stroke-dasharray="2 6" pointer-events="stroke"/><path d="M 102 62 L 135.34 99.54" fill="none" stroke="#000000" stroke-width="2" stroke-miterlimit="10" stroke-dasharray="2 6" pointer-events="stroke"/><rect x="159" y="20" width="30" height="10" fill="#97d077" stroke="none" pointer-events="all"/><rect x="159" y="20" width="30" height="10" fill="#97d077" stroke="#000000" pointer-events="all"/><path d="M 166.5 30 L 166.5 20" fill="none" stroke="#000000" stroke-miterlimit="10" pointer-events="stroke"/><path d="M 174 30 L 174 20" fill="none" stroke="#000000" stroke-miterlimit="10" pointer-events="stroke"/><path d="M 181.5 30 L 181.5 20" fill="none" stroke="#000000" stroke-miterlimit="10" pointer-events="stroke"/><rect x="182" y="60" width="30" height="10" fill="#ea6b66" stroke="#000000" pointer-events="all"/><path d="M 189.5 70 L 189.5 60" fill="none" stroke="#000000" stroke-miterlimit="10" pointer-events="stroke"/><path d="M 197 70 L 197 60" fill="none" stroke="#000000" stroke-miterlimit="10" pointer-events="stroke"/><path d="M 204.5 70 L 204.5 60" fill="none" stroke="#000000" stroke-miterlimit="10" pointer-events="stroke"/><rect x="160" y="100" width="30" height="10" fill="#7ea6e0" stroke="#000000" pointer-events="all"/><path d="M 167.5 110 L 167.5 100" fill="none" stroke="#000000" stroke-miterlimit="10" pointer-events="stroke"/><path d="M 175 110 L 175 100" fill="none" stroke="#000000" stroke-miterlimit="10" pointer-events="stroke"/><path d="M 182.5 110 L 182.5 100" fill="none" stroke="#000000" stroke-miterlimit="10" pointer-events="stroke"/></g></svg>