<svg version="1.1" viewBox="0.0 0.0 1248.0 192.0" fill="none" stroke="none" stroke-linecap="square" stroke-miterlimit="10" xmlns:xlink="http://www.w3.org/1999/xlink" xmlns="http://www.w3.org/2000/svg"><clipPath id="p.0"><path d="m0 0l1248.0 0l0 192.0l-1248.0 0l0 -192.0z" clip-rule="nonzero"/></clipPath><g clip-path="url(#p.0)"><path fill="#ffffff" d="m0 0l1248.0 0l0 192.0l-1248.0 0z" fill-rule="evenodd"/><path fill="#000000" fill-opacity="0.0" d="m120.04697 18.249695l93.00787 0l0 36.0l-93.00787 0z" fill-rule="evenodd"/><path fill="#000000" d="m146.03918 42.609695l-2.265625 0l0 -8.703125l-2.6875 0.828125l0 -1.828125l4.703125 -1.6875l0.25 0l0 11.390625z" fill-rule="nonzero"/><path fill="#000000" d="m150.07825 41.84407q0 -0.375 0.21875 -0.625q0.234375 -0.25 0.671875 -0.25q0.453125 0 0.671875 0.25q0.234375 0.25 0.234375 0.625q0 0.359375 -0.234375 0.609375q-0.21875 0.25 -0.671875 0.25q-0.4375 0 -0.671875 -0.25q-0.21875 -0.25 -0.21875 -0.609375zm9.984375 0.765625l-1.5 0l0 -11.375l1.5 0l0 11.375zm3.8828125 -8.453125l0.046875 1.0625q0.96875 -1.21875 2.53125 -1.21875q2.671875 0 2.703125 3.015625l0 5.59375l-1.453125 0l0 -5.59375q0 -0.921875 -0.421875 -1.359375q-0.40625 -0.4375 -1.265625 -0.4375q-0.703125 0 -1.234375 0.375q-0.53125 0.375 -0.828125 0.984375l0 6.03125l-1.453125 0l0 -8.453125l1.375 0zm14.59375 4.3125q0 1.9375 -0.890625 3.125q-0.875 1.171875 -2.375 1.171875q-1.546875 0 -2.421875 -0.984375l0 4.078125l-1.453125 0l0 -11.703125l1.328125 0l0.0625 0.9375q0.890625 -1.09375 2.453125 -1.09375q1.53125 0 2.40625 1.15625q0.890625 1.140625 0.890625 3.1875l0 0.125zm-1.4375 -0.15625q0 -1.4375 -0.609375 -2.265625q-0.609375 -0.828125 -1.671875 -0.828125q-1.3125 0 -1.96875 1.171875l0 4.03125q0.640625 1.15625 1.984375 1.15625q1.03125 0 1.640625 -0.8125q0.625 -0.828125 0.625 -2.453125zm8.4921875 3.453125q-0.84375 1.0 -2.46875 1.0q-1.359375 0 -2.0625 -0.78125q-0.703125 -0.796875 -0.71875 -2.328125l0 -5.5l1.453125 0l0 5.453125q0 1.921875 1.5625 1.921875q1.65625 0 2.203125 -1.234375l0 -6.140625l1.4375 0l0 8.453125l-1.375 0l-0.03125 -0.84375zm5.5703125 -9.65625l0 2.046875l1.578125 0l0 1.109375l-1.578125 0l0 5.25q0 0.5 0.203125 0.765625q0.21875 0.25 0.71875 0.25q0.25 0 0.6875 -0.09375l0 1.171875q-0.5625 0.15625 -1.109375 0.15625q-0.96875 0 -1.46875 -0.578125q-0.484375 -0.59375 -0.484375 -1.671875l0 -5.25l-1.53125 0l0 -1.109375l1.53125 0l0 -2.046875l1.453125 0z" fill-rule="nonzero"/><path fill="#000000" fill-opacity="0.0" d="m29.816954 150.97224l78.5145 0l0 17.443634l-78.5145 0z" fill-rule="evenodd"/><path fill="#000000" fill-opacity="0.0" d="m108.33146 150.97224l97.07604 -97.07605l0 17.443634l-97.07604 97.07605z" fill-rule="evenodd"/><path fill="#000000" fill-opacity="0.0" d="m29.816954 150.97224l97.07604 -97.07605l78.5145 0l-97.07604 97.07605z" fill-rule="evenodd"/><path fill="#000000" fill-opacity="0.0" d="m29.816954 150.97224l97.07604 -97.07605l78.5145 0l0 17.443634l-97.07604 97.07605l-78.5145 0zm0 0l78.5145 0l97.07604 -97.07605m-97.07604 97.07605l0 17.443634" fill-rule="evenodd"/><path fill="#000000" fill-opacity="0.2" d="m108.33146 150.97224l97.07604 -97.07605l0 17.443634l-97.07604 97.07605z" fill-rule="evenodd"/><path fill="#ffffff" fill-opacity="0.2" d="m29.816954 150.97224l97.07604 -97.07605l78.5145 0l-97.07604 97.07605z" fill-rule="evenodd"/><path stroke="#595959" stroke-width="1.0" stroke-linejoin="round" stroke-linecap="butt" d="m29.816954 150.97224l97.07604 -97.07605l78.5145 0l0 17.443634l-97.07604 97.07605l-78.5145 0zm0 0l78.5145 0l97.07604 -97.07605m-97.07604 97.07605l0 17.443634" fill-rule="evenodd"/><path fill="#000000" fill-opacity="0.0" d="m41.662098 138.86467l78.77956 0l0 7.944916l-78.77956 0z" fill-rule="evenodd"/><path fill="#000000" fill-opacity="0.0" d="m120.44166 138.86467l4.4960327 -4.4960327l0 7.944916l-4.4960327 4.4960327z" fill-rule="evenodd"/><path fill="#000000" fill-opacity="0.0" d="m41.662098 138.86467l4.4960327 -4.4960327l78.77956 0l-4.4960327 4.4960327z" fill-rule="evenodd"/><path fill="#000000" fill-opacity="0.0" d="m41.662098 138.86467l4.4960327 -4.4960327l78.77956 0l0 7.944916l-4.4960327 4.4960327l-78.77956 0zm0 0l78.77956 0l4.4960327 -4.4960327m-4.4960327 4.4960327l0 7.944916" fill-rule="evenodd"/><path fill="#000000" fill-opacity="0.2" d="m120.44166 138.86467l4.4960327 -4.4960327l0 7.944916l-4.4960327 4.4960327z" fill-rule="evenodd"/><path fill="#ffffff" fill-opacity="0.2" d="m41.662098 138.86467l4.4960327 -4.4960327l78.77956 0l-4.4960327 4.4960327z" fill-rule="evenodd"/><path stroke="#674ea7" stroke-width="1.0" stroke-linejoin="round" stroke-linecap="butt" d="m41.662098 138.86467l4.4960327 -4.4960327l78.77956 0l0 7.944916l-4.4960327 4.4960327l-78.77956 0zm0 0l78.77956 0l4.4960327 -4.4960327m-4.4960327 4.4960327l0 7.944916" fill-rule="evenodd"/><path fill="#000000" fill-opacity="0.0" d="m29.816954 159.69406l78.519684 0" fill-rule="evenodd"/><path stroke="#595959" stroke-width="1.0" stroke-linejoin="round" stroke-linecap="butt" stroke-dasharray="1.0,3.0" d="m29.816954 159.69406l78.519684 0" fill-rule="evenodd"/><path fill="#000000" fill-opacity="0.0" d="m69.44163 111.156l78.51968 0" fill-rule="evenodd"/><path stroke="#595959" stroke-width="1.0" stroke-linejoin="round" stroke-linecap="butt" stroke-dasharray="1.0,3.0" d="m69.44163 111.156l78.51968 0" fill-rule="evenodd"/><path fill="#000000" fill-opacity="0.0" d="m113.940315 68.40013l76.22047 -0.1889801" fill-rule="evenodd"/><path stroke="#595959" stroke-width="1.0" stroke-linejoin="round" stroke-linecap="butt" stroke-dasharray="1.0,3.0" d="m113.940315 68.40013l76.22047 -0.1889801" fill-rule="evenodd"/><path fill="#000000" fill-opacity="0.0" d="m147.15816 111.90932l0.22047424 18.015747" fill-rule="evenodd"/><path stroke="#595959" stroke-width="1.0" stroke-linejoin="round" stroke-linecap="butt" stroke-dasharray="1.0,3.0" d="m147.15816 111.90932l0.22047424 18.015747" fill-rule="evenodd"/><path fill="#000000" fill-opacity="0.0" d="m190.16078 68.19803l0.22047424 18.015747" fill-rule="evenodd"/><path stroke="#595959" stroke-width="1.0" stroke-linejoin="round" stroke-linecap="butt" stroke-dasharray="1.0,3.0" d="m190.16078 68.19803l0.22047424 18.015747" fill-rule="evenodd"/><path fill="#000000" fill-opacity="0.0" d="m108.33146 159.69406l97.07087 -97.07087" fill-rule="evenodd"/><path stroke="#595959" stroke-width="1.0" stroke-linejoin="round" stroke-linecap="butt" stroke-dasharray="1.0,3.0" d="m108.33146 159.69406l97.07087 -97.07087" fill-rule="evenodd"/><path fill="#000000" fill-opacity="0.0" d="m41.320763 159.69278l53.51181 0l0 17.196854l-53.51181 0z" fill-rule="evenodd"/><path fill="#000000" d="m60.973152 175.56963l-3.734375 0l0 -0.515625l1.96875 -2.1875q0.4375 -0.5 0.609375 -0.8125q0.171875 -0.3125 0.171875 -0.640625q0 -0.453125 -0.28125 -0.734375q-0.265625 -0.28125 -0.71875 -0.28125q-0.53125 0 -0.828125 0.3125q-0.296875 0.296875 -0.296875 0.84375l-0.734375 0q0 -0.78125 0.5 -1.265625q0.515625 -0.484375 1.359375 -0.484375q0.796875 0 1.25 0.421875q0.46875 0.40625 0.46875 1.09375q0 0.84375 -1.0625 2.0l-1.53125 1.65625l2.859375 0l0 0.59375zm4.3359375 -2.421875q0 1.265625 -0.4375 1.890625q-0.4375 0.609375 -1.359375 0.609375q-0.90625 0 -1.34375 -0.59375q-0.4375 -0.609375 -0.453125 -1.8125l0 -0.96875q0 -1.25 0.421875 -1.859375q0.4375 -0.609375 1.375 -0.609375q0.90625 0 1.34375 0.59375q0.4375 0.578125 0.453125 1.8125l0 0.9375zm-0.734375 -1.0q0 -0.90625 -0.265625 -1.328125q-0.25 -0.421875 -0.796875 -0.421875q-0.5625 0 -0.8125 0.421875q-0.25 0.40625 -0.265625 1.28125l0 1.15625q0 0.921875 0.265625 1.359375q0.265625 0.4375 0.8125 0.4375q0.53125 0 0.796875 -0.40625q0.265625 -0.421875 0.265625 -1.3125l0 -1.1875zm5.1289062 0.734375l0.9375 -1.546875l0.84375 0l-1.390625 2.09375l1.4375 2.140625l-0.84375 0l-0.96875 -1.578125l-0.984375 1.578125l-0.84375 0l1.4375 -2.140625l-1.390625 -2.09375l0.84375 0l0.921875 1.546875zm9.0078125 2.6875l-0.75 0l-2.859375 -4.390625l0 4.390625l-0.765625 0l0 -5.6875l0.765625 0l2.859375 4.40625l0 -4.40625l0.75 0l0 5.6875z" fill-rule="nonzero"/><path fill="#000000" fill-opacity="0.0" d="m385.65082 111.779465l0.25198364 18.015747" fill-rule="evenodd"/><path stroke="#595959" stroke-width="1.0" stroke-linejoin="round" stroke-linecap="butt" stroke-dasharray="1.0,3.0" d="m385.65082 111.779465l0.25198364 18.015747" fill-rule="evenodd"/><path fill="#000000" fill-opacity="0.0" d="m429.30713 68.20853l0.25198364 18.015747" fill-rule="evenodd"/><path stroke="#595959" stroke-width="1.0" stroke-linejoin="round" stroke-linecap="butt" stroke-dasharray="1.0,3.0" d="m429.30713 68.20853l0.25198364 18.015747" fill-rule="evenodd"/><path fill="#000000" fill-opacity="0.0" d="m232.66422 150.98274l114.42001 0l0 17.443634l-114.42001 0z" fill-rule="evenodd"/><path fill="#000000" fill-opacity="0.0" d="m347.08423 150.98274l97.07605 -97.07605l0 17.443634l-97.07605 97.07605z" fill-rule="evenodd"/><path fill="#000000" fill-opacity="0.0" d="m232.66422 150.98274l97.07605 -97.07605l114.42001 0l-97.07605 97.07605z" fill-rule="evenodd"/><path fill="#000000" fill-opacity="0.0" d="m232.66422 150.98274l97.07605 -97.07605l114.42001 0l0 17.443634l-97.07605 97.07605l-114.42001 0zm0 0l114.42001 0l97.07605 -97.07605m-97.07605 97.07605l0 17.443634" fill-rule="evenodd"/><path fill="#000000" fill-opacity="0.2" d="m347.08423 150.98274l97.07605 -97.07605l0 17.443634l-97.07605 97.07605z" fill-rule="evenodd"/><path fill="#ffffff" fill-opacity="0.2" d="m232.66422 150.98274l97.07605 -97.07605l114.42001 0l-97.07605 97.07605z" fill-rule="evenodd"/><path stroke="#595959" stroke-width="1.0" stroke-linejoin="round" stroke-linecap="butt" d="m232.66422 150.98274l97.07605 -97.07605l114.42001 0l0 17.443634l-97.07605 97.07605l-114.42001 0zm0 0l114.42001 0l97.07605 -97.07605m-97.07605 97.07605l0 17.443634" fill-rule="evenodd"/><path fill="#000000" fill-opacity="0.0" d="m245.2976 138.87648l113.55121 0l0 7.944916l-113.55121 0z" fill-rule="evenodd"/><path fill="#000000" fill-opacity="0.0" d="m358.84882 138.87648l4.4960327 -4.4960327l0 7.944916l-4.4960327 4.4960327z" fill-rule="evenodd"/><path fill="#000000" fill-opacity="0.0" d="m245.2976 138.87648l4.4960327 -4.4960327l113.55121 0l-4.4960327 4.4960327z" fill-rule="evenodd"/><path fill="#000000" fill-opacity="0.0" d="m245.2976 138.87648l4.4960327 -4.4960327l113.55121 0l0 7.944916l-4.4960327 4.4960327l-113.55121 0zm0 0l113.55121 0l4.4960327 -4.4960327m-4.4960327 4.4960327l0 7.944916" fill-rule="evenodd"/><path fill="#000000" fill-opacity="0.2" d="m358.84882 138.87648l4.4960327 -4.4960327l0 7.944916l-4.4960327 4.4960327z" fill-rule="evenodd"/><path fill="#ffffff" fill-opacity="0.2" d="m245.2976 138.87648l4.4960327 -4.4960327l113.55121 0l-4.4960327 4.4960327z" fill-rule="evenodd"/><path stroke="#674ea7" stroke-width="1.0" stroke-linejoin="round" stroke-linecap="butt" d="m245.2976 138.87648l4.4960327 -4.4960327l113.55121 0l0 7.944916l-4.4960327 4.4960327l-113.55121 0zm0 0l113.55121 0l4.4960327 -4.4960327m-4.4960327 4.4960327l0 7.944916" fill-rule="evenodd"/><path fill="#000000" fill-opacity="0.0" d="m232.66422 159.70456l114.4252 0" fill-rule="evenodd"/><path stroke="#595959" stroke-width="1.0" stroke-linejoin="round" stroke-linecap="butt" stroke-dasharray="1.0,3.0" d="m232.66422 159.70456l114.4252 0" fill-rule="evenodd"/><path fill="#000000" fill-opacity="0.0" d="m273.08762 111.16522l113.13388 0" fill-rule="evenodd"/><path stroke="#595959" stroke-width="1.0" stroke-linejoin="round" stroke-linecap="butt" stroke-dasharray="1.0,3.0" d="m273.08762 111.16522l113.13388 0" fill-rule="evenodd"/><path fill="#000000" fill-opacity="0.0" d="m315.89603 68.22296l113.82678 0" fill-rule="evenodd"/><path stroke="#595959" stroke-width="1.0" stroke-linejoin="round" stroke-linecap="butt" stroke-dasharray="1.0,3.0" d="m315.89603 68.22296l113.82678 0" fill-rule="evenodd"/><path fill="#000000" fill-opacity="0.0" d="m347.08423 159.70456l97.07086 -97.07087" fill-rule="evenodd"/><path stroke="#595959" stroke-width="1.0" stroke-linejoin="round" stroke-linecap="butt" stroke-dasharray="1.0,3.0" d="m347.08423 159.70456l97.07086 -97.07087" fill-rule="evenodd"/><path fill="#000000" fill-opacity="0.0" d="m267.78317 159.70328l44.188965 0l0 17.196854l-44.188965 0z" fill-rule="evenodd"/><path fill="#000000" d="m280.10226 172.377l0.53125 0q0.515625 0 0.8125 -0.265625q0.296875 -0.265625 0.296875 -0.703125q0 -1.0 -1.0 -1.0q-0.46875 0 -0.75 0.265625q-0.28125 0.265625 -0.28125 0.703125l-0.71875 0q0 -0.671875 0.484375 -1.109375q0.5 -0.453125 1.265625 -0.453125q0.796875 0 1.25 0.421875q0.46875 0.421875 0.46875 1.1875q0 0.375 -0.25 0.71875q-0.234375 0.34375 -0.640625 0.515625q0.46875 0.15625 0.71875 0.5q0.25 0.34375 0.25 0.828125q0 0.765625 -0.5 1.21875q-0.5 0.453125 -1.296875 0.453125q-0.796875 0 -1.296875 -0.4375q-0.5 -0.4375 -0.5 -1.140625l0.71875 0q0 0.453125 0.296875 0.71875q0.296875 0.265625 0.78125 0.265625q0.53125 0 0.796875 -0.265625q0.28125 -0.28125 0.28125 -0.796875q0 -0.484375 -0.3125 -0.75q-0.296875 -0.265625 -0.875 -0.28125l-0.53125 0l0 -0.59375zm7.1640625 3.203125l-3.734375 0l0 -0.515625l1.96875 -2.1875q0.4375 -0.5 0.609375 -0.8125q0.171875 -0.3125 0.171875 -0.640625q0 -0.453125 -0.28125 -0.734375q-0.265625 -0.28125 -0.71875 -0.28125q-0.53125 0 -0.828125 0.3125q-0.296875 0.296875 -0.296875 0.84375l-0.734375 0q0 -0.78125 0.5 -1.265625q0.515625 -0.484375 1.359375 -0.484375q0.796875 0 1.25 0.421875q0.46875 0.40625 0.46875 1.09375q0 0.84375 -1.0625 2.0l-1.53125 1.65625l2.859375 0l0 0.59375zm4.2382812 -2.6875l0.9375 -1.546875l0.84375 0l-1.390625 2.09375l1.4375 2.140625l-0.84375 0l-0.96875 -1.578125l-0.984375 1.578125l-0.84375 0l1.4375 -2.140625l-1.390625 -2.09375l0.84375 0l0.921875 1.546875zm9.0078125 2.6875l-0.75 0l-2.859375 -4.390625l0 4.390625l-0.765625 0l0 -5.6875l0.765625 0l2.859375 4.40625l0 -4.40625l0.75 0l0 5.6875z" fill-rule="nonzero"/><path fill="#000000" fill-opacity="0.0" d="m288.8324 150.2308l97.07086 -97.07086" fill-rule="evenodd"/><path stroke="#595959" stroke-width="1.0" stroke-linejoin="round" stroke-linecap="butt" stroke-dasharray="1.0,3.0" d="m288.8324 150.2308l97.07086 -97.07086" fill-rule="evenodd"/><path fill="#000000" fill-opacity="0.0" d="m639.9857 111.779465l0.25195312 18.015747" fill-rule="evenodd"/><path stroke="#595959" stroke-width="1.0" stroke-linejoin="round" stroke-linecap="butt" stroke-dasharray="1.0,3.0" d="m639.9857 111.779465l0.25195312 18.015747" fill-rule="evenodd"/><path fill="#000000" fill-opacity="0.0" d="m683.642 68.20853l0.25195312 18.015747" fill-rule="evenodd"/><path stroke="#595959" stroke-width="1.0" stroke-linejoin="round" stroke-linecap="butt" stroke-dasharray="1.0,3.0" d="m683.642 68.20853l0.25195312 18.015747" fill-rule="evenodd"/><path fill="#000000" fill-opacity="0.0" d="m486.9991 150.98274l114.42001 0l0 17.443634l-114.42001 0z" fill-rule="evenodd"/><path fill="#000000" fill-opacity="0.0" d="m601.4191 150.98274l97.07605 -97.07605l0 17.443634l-97.07605 97.07605z" fill-rule="evenodd"/><path fill="#000000" fill-opacity="0.0" d="m486.9991 150.98274l97.07602 -97.07605l114.420044 0l-97.07605 97.07605z" fill-rule="evenodd"/><path fill="#000000" fill-opacity="0.0" d="m486.9991 150.98274l97.07602 -97.07605l114.420044 0l0 17.443634l-97.07605 97.07605l-114.42001 0zm0 0l114.42001 0l97.07605 -97.07605m-97.07605 97.07605l0 17.443634" fill-rule="evenodd"/><path fill="#000000" fill-opacity="0.2" d="m601.4191 150.98274l97.07605 -97.07605l0 17.443634l-97.07605 97.07605z" fill-rule="evenodd"/><path fill="#ffffff" fill-opacity="0.2" d="m486.9991 150.98274l97.07602 -97.07605l114.420044 0l-97.07605 97.07605z" fill-rule="evenodd"/><path stroke="#595959" stroke-width="1.0" stroke-linejoin="round" stroke-linecap="butt" d="m486.9991 150.98274l97.07602 -97.07605l114.420044 0l0 17.443634l-97.07605 97.07605l-114.42001 0zm0 0l114.42001 0l97.07605 -97.07605m-97.07605 97.07605l0 17.443634" fill-rule="evenodd"/><path fill="#000000" fill-opacity="0.0" d="m499.6325 138.87648l113.55121 0l0 7.944916l-113.55121 0z" fill-rule="evenodd"/><path fill="#000000" fill-opacity="0.0" d="m613.1837 138.87648l4.4960327 -4.4960327l0 7.944916l-4.4960327 4.4960327z" fill-rule="evenodd"/><path fill="#000000" fill-opacity="0.0" d="m499.6325 138.87648l4.4960327 -4.4960327l113.55121 0l-4.4960327 4.4960327z" fill-rule="evenodd"/><path fill="#000000" fill-opacity="0.0" d="m499.6325 138.87648l4.4960327 -4.4960327l113.55121 0l0 7.944916l-4.4960327 4.4960327l-113.55121 0zm0 0l113.55121 0l4.4960327 -4.4960327m-4.4960327 4.4960327l0 7.944916" fill-rule="evenodd"/><path fill="#000000" fill-opacity="0.2" d="m613.1837 138.87648l4.4960327 -4.4960327l0 7.944916l-4.4960327 4.4960327z" fill-rule="evenodd"/><path fill="#ffffff" fill-opacity="0.2" d="m499.6325 138.87648l4.4960327 -4.4960327l113.55121 0l-4.4960327 4.4960327z" fill-rule="evenodd"/><path stroke="#674ea7" stroke-width="1.0" stroke-linejoin="round" stroke-linecap="butt" d="m499.6325 138.87648l4.4960327 -4.4960327l113.55121 0l0 7.944916l-4.4960327 4.4960327l-113.55121 0zm0 0l113.55121 0l4.4960327 -4.4960327m-4.4960327 4.4960327l0 7.944916" fill-rule="evenodd"/><path fill="#000000" fill-opacity="0.0" d="m486.9991 159.70456l114.4252 0" fill-rule="evenodd"/><path stroke="#595959" stroke-width="1.0" stroke-linejoin="round" stroke-linecap="butt" stroke-dasharray="1.0,3.0" d="m486.9991 159.70456l114.4252 0" fill-rule="evenodd"/><path fill="#000000" fill-opacity="0.0" d="m527.42255 111.16522l113.13385 0" fill-rule="evenodd"/><path stroke="#595959" stroke-width="1.0" stroke-linejoin="round" stroke-linecap="butt" stroke-dasharray="1.0,3.0" d="m527.42255 111.16522l113.13385 0" fill-rule="evenodd"/><path fill="#000000" fill-opacity="0.0" d="m570.23096 68.22296l113.82672 0" fill-rule="evenodd"/><path stroke="#595959" stroke-width="1.0" stroke-linejoin="round" stroke-linecap="butt" stroke-dasharray="1.0,3.0" d="m570.23096 68.22296l113.82672 0" fill-rule="evenodd"/><path fill="#000000" fill-opacity="0.0" d="m601.4191 159.70456l97.07086 -97.07087" fill-rule="evenodd"/><path stroke="#595959" stroke-width="1.0" stroke-linejoin="round" stroke-linecap="butt" stroke-dasharray="1.0,3.0" d="m601.4191 159.70456l97.07086 -97.07087" fill-rule="evenodd"/><path fill="#000000" fill-opacity="0.0" d="m522.11804 159.70328l44.189026 0l0 17.196854l-44.189026 0z" fill-rule="evenodd"/><path fill="#000000" d="m534.4372 172.377l0.53125 0q0.515625 0 0.8125 -0.265625q0.296875 -0.265625 0.296875 -0.703125q0 -1.0 -1.0 -1.0q-0.46875 0 -0.75 0.265625q-0.28125 0.265625 -0.28125 0.703125l-0.71875 0q0 -0.671875 0.484375 -1.109375q0.5 -0.453125 1.265625 -0.453125q0.796875 0 1.25 0.421875q0.46875 0.421875 0.46875 1.1875q0 0.375 -0.25 0.71875q-0.234375 0.34375 -0.640625 0.515625q0.46875 0.15625 0.71875 0.5q0.25 0.34375 0.25 0.828125q0 0.765625 -0.5 1.21875q-0.5 0.453125 -1.296875 0.453125q-0.796875 0 -1.296875 -0.4375q-0.5 -0.4375 -0.5 -1.140625l0.71875 0q0 0.453125 0.296875 0.71875q0.296875 0.265625 0.78125 0.265625q0.53125 0 0.796875 -0.265625q0.28125 -0.28125 0.28125 -0.796875q0 -0.484375 -0.3125 -0.75q-0.296875 -0.265625 -0.875 -0.28125l-0.53125 0l0 -0.59375zm7.1640625 3.203125l-3.734375 0l0 -0.515625l1.96875 -2.1875q0.4375 -0.5 0.609375 -0.8125q0.171875 -0.3125 0.171875 -0.640625q0 -0.453125 -0.28125 -0.734375q-0.265625 -0.28125 -0.71875 -0.28125q-0.53125 0 -0.828125 0.3125q-0.296875 0.296875 -0.296875 0.84375l-0.734375 0q0 -0.78125 0.5 -1.265625q0.515625 -0.484375 1.359375 -0.484375q0.796875 0 1.25 0.421875q0.46875 0.40625 0.46875 1.09375q0 0.84375 -1.0625 2.0l-1.53125 1.65625l2.859375 0l0 0.59375zm4.2382812 -2.6875l0.9375 -1.546875l0.84375 0l-1.390625 2.09375l1.4375 2.140625l-0.84375 0l-0.96875 -1.578125l-0.984375 1.578125l-0.84375 0l1.4375 -2.140625l-1.390625 -2.09375l0.84375 0l0.921875 1.546875zm9.0078125 2.6875l-0.75 0l-2.859375 -4.390625l0 4.390625l-0.765625 0l0 -5.6875l0.765625 0l2.859375 4.40625l0 -4.40625l0.75 0l0 5.6875z" fill-rule="nonzero"/><path fill="#000000" fill-opacity="0.0" d="m543.1673 150.2308l97.07086 -97.07086" fill-rule="evenodd"/><path stroke="#595959" stroke-width="1.0" stroke-linejoin="round" stroke-linecap="butt" stroke-dasharray="1.0,3.0" d="m543.1673 150.2308l97.07086 -97.07086" fill-rule="evenodd"/><path fill="#000000" fill-opacity="0.0" d="m741.33124 139.22528l166.62018 0l0 16.950851l-166.62018 0z" fill-rule="evenodd"/><path fill="#000000" fill-opacity="0.0" d="m907.9514 139.22528l58.51367 -58.51371l0 16.950844l-58.51367 58.513718z" fill-rule="evenodd"/><path fill="#000000" fill-opacity="0.0" d="m741.33124 139.22528l58.513733 -58.51371l166.62012 0l-58.51367 58.51371z" fill-rule="evenodd"/><path fill="#000000" fill-opacity="0.0" d="m741.33124 139.22528l58.513733 -58.51371l166.62012 0l0 16.950844l-58.51367 58.513718l-166.62018 0zm0 0l166.62018 0l58.51367 -58.51371m-58.51367 58.51371l0 16.950851" fill-rule="evenodd"/><path fill="#000000" fill-opacity="0.2" d="m907.9514 139.22528l58.51367 -58.51371l0 16.950844l-58.51367 58.513718z" fill-rule="evenodd"/><path fill="#ffffff" fill-opacity="0.2" d="m741.33124 139.22528l58.513733 -58.51371l166.62012 0l-58.51367 58.51371z" fill-rule="evenodd"/><path stroke="#595959" stroke-width="1.0" stroke-linejoin="round" stroke-linecap="butt" d="m741.33124 139.22528l58.513733 -58.51371l166.62012 0l0 16.950844l-58.51367 58.513718l-166.62018 0zm0 0l166.62018 0l58.51367 -58.51371m-58.51367 58.51371l0 16.950851" fill-rule="evenodd"/><path fill="#000000" fill-opacity="0.0" d="m922.94696 124.27028l0.25195312 18.015747" fill-rule="evenodd"/><path stroke="#595959" stroke-width="1.0" stroke-linejoin="round" stroke-linecap="butt" stroke-dasharray="1.0,3.0" d="m922.94696 124.27028l0.25195312 18.015747" fill-rule="evenodd"/><path fill="#000000" fill-opacity="0.0" d="m948.77386 98.39488l0.25195312 18.015747" fill-rule="evenodd"/><path stroke="#595959" stroke-width="1.0" stroke-linejoin="round" stroke-linecap="butt" stroke-dasharray="1.0,3.0" d="m948.77386 98.39488l0.25195312 18.015747" fill-rule="evenodd"/><path fill="#000000" fill-opacity="0.0" d="m907.9514 147.70071l58.519653 -58.51969" fill-rule="evenodd"/><path stroke="#595959" stroke-width="1.0" stroke-linejoin="round" stroke-linecap="butt" stroke-dasharray="1.0,3.0" d="m907.9514 147.70071l58.519653 -58.51969" fill-rule="evenodd"/><path fill="#000000" fill-opacity="0.0" d="m741.33124 147.70071l166.6142 0" fill-rule="evenodd"/><path stroke="#595959" stroke-width="1.0" stroke-linejoin="round" stroke-linecap="butt" stroke-dasharray="1.0,3.0" d="m741.33124 147.70071l166.6142 0" fill-rule="evenodd"/><path fill="#000000" fill-opacity="0.0" d="m756.2079 124.27062l166.74017 0" fill-rule="evenodd"/><path stroke="#595959" stroke-width="1.0" stroke-linejoin="round" stroke-linecap="butt" stroke-dasharray="1.0,3.0" d="m756.2079 124.27062l166.74017 0" fill-rule="evenodd"/><path fill="#000000" fill-opacity="0.0" d="m782.6646 98.39661l166.11023 0" fill-rule="evenodd"/><path stroke="#595959" stroke-width="1.0" stroke-linejoin="round" stroke-linecap="butt" stroke-dasharray="1.0,3.0" d="m782.6646 98.39661l166.11023 0" fill-rule="evenodd"/><path fill="#000000" fill-opacity="0.0" d="m789.88245 147.70107l69.51178 0l0 17.196854l-69.51178 0z" fill-rule="evenodd"/><path fill="#000000" d="m808.0114 157.89041l0 0.609375l-0.140625 0q-0.84375 0.015625 -1.34375 0.5q-0.5 0.484375 -0.578125 1.359375q0.453125 -0.515625 1.234375 -0.515625q0.734375 0 1.171875 0.53125q0.453125 0.515625 0.453125 1.34375q0 0.875 -0.484375 1.40625q-0.46875 0.53125 -1.28125 0.53125q-0.8125 0 -1.328125 -0.625q-0.5 -0.625 -0.5 -1.625l0 -0.265625q0 -1.578125 0.671875 -2.40625q0.671875 -0.828125 2.0 -0.84375l0.125 0zm-0.953125 2.5625q-0.375 0 -0.6875 0.21875q-0.3125 0.21875 -0.421875 0.5625l0 0.265625q0 0.703125 0.3125 1.140625q0.3125 0.421875 0.78125 0.421875q0.5 0 0.765625 -0.359375q0.28125 -0.359375 0.28125 -0.953125q0 -0.578125 -0.28125 -0.9375q-0.28125 -0.359375 -0.75 -0.359375zm5.6640625 1.21875l0.78125 0l0 0.578125l-0.78125 0l0 1.328125l-0.734375 0l0 -1.328125l-2.59375 0l0 -0.421875l2.546875 -3.9375l0.78125 0l0 3.78125zm-2.5 0l1.765625 0l0 -2.796875l-0.078125 0.15625l-1.6875 2.640625zm7.4101562 -0.78125l0.9375 -1.546875l0.84375 0l-1.390625 2.09375l1.4375 2.140625l-0.84375 0l-0.96875 -1.578125l-0.984375 1.578125l-0.84375 0l1.4375 -2.140625l-1.390625 -2.09375l0.84375 0l0.921875 1.546875zm4.4921875 0.375q0 -0.875 0.234375 -1.6875q0.25 -0.8125 0.71875 -1.46875q0.46875 -0.671875 0.96875 -0.953125l0.140625 0.484375q-0.5625 0.4375 -0.9375 1.34375q-0.359375 0.890625 -0.390625 2.0l0 0.328125q0 1.515625 0.546875 2.625q0.328125 0.65625 0.78125 1.03125l-0.140625 0.453125q-0.515625 -0.296875 -1.0 -0.96875q-0.921875 -1.34375 -0.921875 -3.1875zm7.25 2.3125l-0.75 0l-2.859375 -4.390625l0 4.390625l-0.765625 0l0 -5.6875l0.765625 0l2.859375 4.40625l0 -4.40625l0.75 0l0 5.6875zm3.3398438 0.484375l-0.609375 0l2.375 -6.171875l0.609375 0l-2.375 6.171875zm8.792969 -0.484375l-3.734375 0l0 -0.515625l1.96875 -2.1875q0.4375 -0.5 0.609375 -0.8125q0.171875 -0.3125 0.171875 -0.640625q0 -0.453125 -0.28125 -0.734375q-0.265625 -0.28125 -0.71875 -0.28125q-0.53125 0 -0.828125 0.3125q-0.296875 0.296875 -0.296875 0.84375l-0.734375 0q0 -0.78125 0.5 -1.265625q0.515625 -0.484375 1.359375 -0.484375q0.796875 0 1.25 0.421875q0.46875 0.40625 0.46875 1.09375q0 0.84375 -1.0625 2.0l-1.53125 1.65625l2.859375 0l0 0.59375zm2.5078125 -2.265625q0 0.859375 -0.234375 1.671875q-0.21875 0.796875 -0.703125 1.46875q-0.46875 0.671875 -0.984375 0.96875l-0.140625 -0.453125q0.59375 -0.453125 0.953125 -1.421875q0.375 -0.984375 0.375 -2.15625l0 -0.125q0 -0.828125 -0.171875 -1.53125q-0.171875 -0.703125 -0.484375 -1.265625q-0.296875 -0.5625 -0.671875 -0.875l0.140625 -0.4375q0.515625 0.28125 0.984375 0.953125q0.46875 0.671875 0.703125 1.484375q0.234375 0.796875 0.234375 1.71875z" fill-rule="nonzero"/><path fill="#000000" fill-opacity="0.0" d="m824.1696 138.69582l57.984253 -57.984245" fill-rule="evenodd"/><path stroke="#595959" stroke-width="1.0" stroke-linejoin="round" stroke-linecap="butt" stroke-dasharray="1.0,3.0" d="m824.1696 138.69582l57.984253 -57.984245" fill-rule="evenodd"/><path fill="#000000" fill-opacity="0.0" d="m1135.8926 114.12311l7.328491 0l0 16.462341l-7.328491 0z" fill-rule="evenodd"/><path fill="#000000" fill-opacity="0.0" d="m1143.2211 114.12311l13.206909 -13.206955l0 16.462334l-13.206909 13.206963z" fill-rule="evenodd"/><path fill="#000000" fill-opacity="0.0" d="m1135.8926 114.12311l13.207031 -13.206955l7.328369 0l-13.206909 13.206955z" fill-rule="evenodd"/><path fill="#000000" fill-opacity="0.0" d="m1135.8926 114.12311l13.207031 -13.206955l7.328369 0l0 16.462334l-13.206909 13.206963l-7.328491 0zm0 0l7.328491 0l13.206909 -13.206955m-13.206909 13.206955l0 16.462341" fill-rule="evenodd"/><path fill="#000000" fill-opacity="0.2" d="m1143.2211 114.12311l13.206909 -13.206955l0 16.462334l-13.206909 13.206963z" fill-rule="evenodd"/><path fill="#ffffff" fill-opacity="0.2" d="m1135.8926 114.12311l13.207031 -13.206955l7.328369 0l-13.206909 13.206955z" fill-rule="evenodd"/><path stroke="#595959" stroke-width="1.0" stroke-linejoin="round" stroke-linecap="butt" d="m1135.8926 114.12311l13.207031 -13.206955l7.328369 0l0 16.462334l-13.206909 13.206963l-7.328491 0zm0 0l7.328491 0l13.206909 -13.206955m-13.206909 13.206955l0 16.462341" fill-rule="evenodd"/><path fill="#000000" fill-opacity="0.0" d="m1135.8926 122.35427l7.338623 0" fill-rule="evenodd"/><path stroke="#595959" stroke-width="1.0" stroke-linejoin="round" stroke-linecap="butt" stroke-dasharray="1.0,3.0" d="m1135.8926 122.35427l7.338623 0" fill-rule="evenodd"/><path fill="#000000" fill-opacity="0.0" d="m1141.0682 109.24686l7.1811523 0.12598419" fill-rule="evenodd"/><path stroke="#595959" stroke-width="1.0" stroke-linejoin="round" stroke-linecap="butt" stroke-dasharray="1.0,3.0" d="m1141.0682 109.24686l7.1811523 0.12598419" fill-rule="evenodd"/><path fill="#000000" fill-opacity="0.0" d="m1147.6113 109.372185l0.22045898 16.755905" fill-rule="evenodd"/><path stroke="#595959" stroke-width="1.0" stroke-linejoin="round" stroke-linecap="butt" stroke-dasharray="1.0,3.0" d="m1147.6113 109.372185l0.22045898 16.755905" fill-rule="evenodd"/><path fill="#000000" fill-opacity="0.0" d="m1144.6929 105.24686l7.4331055 -0.06298828" fill-rule="evenodd"/><path stroke="#595959" stroke-width="1.0" stroke-linejoin="round" stroke-linecap="butt" stroke-dasharray="1.0,3.0" d="m1144.6929 105.24686l7.4331055 -0.06298828" fill-rule="evenodd"/><path fill="#000000" fill-opacity="0.0" d="m1152.0581 105.18387l0 17.133858" fill-rule="evenodd"/><path stroke="#595959" stroke-width="1.0" stroke-linejoin="round" stroke-linecap="butt" stroke-dasharray="1.0,3.0" d="m1152.0581 105.18387l0 17.133858" fill-rule="evenodd"/><path fill="#000000" fill-opacity="0.0" d="m1143.2211 122.35427l13.196899 -13.196846" fill-rule="evenodd"/><path stroke="#595959" stroke-width="1.0" stroke-linejoin="round" stroke-linecap="butt" stroke-dasharray="1.0,3.0" d="m1143.2211 122.35427l13.196899 -13.196846" fill-rule="evenodd"/><path fill="#000000" fill-opacity="0.0" d="m1086.5039 61.413387l130.2992 0l0 32.56693l-130.2992 0z" fill-rule="evenodd"/><path fill="#000000" d="m1109.595 74.273384l0 1.859375l-0.21875 0q-1.53125 0.03125 -2.46875 0.8125q-0.9375 0.765625 -1.125 2.140625q0.90625 -0.921875 2.296875 -0.921875q1.484375 0 2.359375 1.0625q0.875 1.0625 0.875 2.796875q0 1.109375 -0.484375 2.015625q-0.484375 0.890625 -1.359375 1.390625q-0.875 0.5 -1.984375 0.5q-1.796875 0 -2.90625 -1.25q-1.109375 -1.25 -1.109375 -3.34375l0 -0.8125q0 -1.84375 0.703125 -3.265625q0.703125 -1.421875 2.0 -2.1875q1.3125 -0.78125 3.046875 -0.796875l0.375 0zm-2.203125 5.703125q-0.546875 0 -1.0 0.28125q-0.4375 0.28125 -0.65625 0.75l0 0.6875q0 1.140625 0.4375 1.78125q0.453125 0.625 1.265625 0.625q0.71875 0 1.171875 -0.5625q0.453125 -0.578125 0.453125 -1.5q0 -0.921875 -0.453125 -1.484375q-0.453125 -0.578125 -1.21875 -0.578125z" fill-rule="nonzero"/><path fill="#000000" d="m1112.9934 85.00776q0 -0.375 0.21875 -0.625q0.234375 -0.25 0.671875 -0.25q0.453125 0 0.671875 0.25q0.234375 0.25 0.234375 0.625q0 0.359375 -0.234375 0.609375q-0.21875 0.25 -0.671875 0.25q-0.4375 0 -0.671875 -0.25q-0.21875 -0.25 -0.21875 -0.609375zm9.875 -3.6875l0 4.453125l-1.5 0l0 -11.375l4.1875 0q1.875 0 2.921875 0.953125q1.0625 0.953125 1.0625 2.515625q0 1.65625 -1.03125 2.5625q-1.03125 0.890625 -2.96875 0.890625l-2.671875 0zm0 -1.234375l2.6875 0q1.203125 0 1.84375 -0.5625q0.640625 -0.5625 0.640625 -1.640625q0 -1.015625 -0.640625 -1.625q-0.640625 -0.609375 -1.75 -0.625l-2.78125 0l0 4.453125zm12.453125 -1.46875q-0.328125 -0.0625 -0.71875 -0.0625q-1.421875 0 -1.921875 1.21875l0 6.0l-1.453125 0l0 -8.453125l1.40625 0l0.03125 0.96875q0.703125 -1.125 2.015625 -1.125q0.421875 0 0.640625 0.109375l0 1.34375zm4.8359375 7.3125q-1.71875 0 -2.796875 -1.125q-1.078125 -1.140625 -1.078125 -3.03125l0 -0.265625q0 -1.25 0.46875 -2.234375q0.484375 -1.0 1.34375 -1.546875q0.875 -0.5625 1.875 -0.5625q1.65625 0 2.5625 1.09375q0.921875 1.078125 0.921875 3.09375l0 0.609375l-5.734375 0q0.03125 1.25 0.734375 2.015625q0.703125 0.765625 1.78125 0.765625q0.765625 0 1.296875 -0.3125q0.53125 -0.3125 0.921875 -0.828125l0.890625 0.6875q-1.0625 1.640625 -3.1875 1.640625zm-0.1875 -7.578125q-0.875 0 -1.46875 0.640625q-0.59375 0.625 -0.734375 1.78125l4.234375 0l0 -0.109375q-0.0625 -1.109375 -0.59375 -1.703125q-0.53125 -0.609375 -1.4375 -0.609375zm4.8046875 3.125q0 -1.953125 0.921875 -3.125q0.921875 -1.1875 2.40625 -1.1875q1.484375 0 2.359375 1.015625l0 -4.40625l1.4375 0l0 12.0l-1.328125 0l-0.0625 -0.90625q-0.875 1.0625 -2.421875 1.0625q-1.46875 0 -2.390625 -1.203125q-0.921875 -1.203125 -0.921875 -3.140625l0 -0.109375zm1.4375 0.15625q0 1.4375 0.59375 2.25q0.59375 0.8125 1.640625 0.8125q1.375 0 2.015625 -1.234375l0 -3.875q-0.65625 -1.203125 -2.0 -1.203125q-1.0625 0 -1.65625 0.828125q-0.59375 0.8125 -0.59375 2.421875zm9.5078125 4.140625l-1.453125 0l0 -8.453125l1.453125 0l0 8.453125zm-1.5625 -10.703125q0 -0.34375 0.203125 -0.578125q0.21875 -0.25 0.640625 -0.25q0.421875 0 0.640625 0.25q0.21875 0.234375 0.21875 0.59375q0 0.34375 -0.21875 0.578125q-0.21875 0.234375 -0.640625 0.234375q-0.421875 0 -0.640625 -0.234375q-0.203125 -0.234375 -0.203125 -0.59375zm7.2578125 9.671875q0.78125 0 1.359375 -0.46875q0.578125 -0.46875 0.640625 -1.171875l1.359375 0q-0.03125 0.734375 -0.5 1.390625q-0.453125 0.65625 -1.234375 1.046875q-0.765625 0.390625 -1.625 0.390625q-1.71875 0 -2.75 -1.15625q-1.015625 -1.15625 -1.015625 -3.15625l0 -0.234375q0 -1.234375 0.453125 -2.1875q0.453125 -0.96875 1.296875 -1.5q0.859375 -0.53125 2.015625 -0.53125q1.421875 0 2.359375 0.859375q0.9375 0.84375 1.0 2.203125l-1.359375 0q-0.0625 -0.828125 -0.625 -1.34375q-0.5625 -0.53125 -1.375 -0.53125q-1.109375 0 -1.71875 0.796875q-0.59375 0.78125 -0.59375 2.28125l0 0.28125q0 1.453125 0.59375 2.25q0.609375 0.78125 1.71875 0.78125zm6.953125 -9.46875l0 2.046875l1.578125 0l0 1.109375l-1.578125 0l0 5.25q0 0.5 0.203125 0.765625q0.21875 0.25 0.71875 0.25q0.25 0 0.6875 -0.09375l0 1.171875q-0.5625 0.15625 -1.109375 0.15625q-0.96875 0 -1.46875 -0.578125q-0.484375 -0.59375 -0.484375 -1.671875l0 -5.25l-1.53125 0l0 -1.109375l1.53125 0l0 -2.046875l1.453125 0zm4.8359375 10.5l-1.453125 0l0 -8.453125l1.453125 0l0 8.453125zm-1.5625 -10.703125q0 -0.34375 0.203125 -0.578125q0.21875 -0.25 0.640625 -0.25q0.421875 0 0.640625 0.25q0.21875 0.234375 0.21875 0.59375q0 0.34375 -0.21875 0.578125q-0.21875 0.234375 -0.640625 0.234375q-0.421875 0 -0.640625 -0.234375q-0.203125 -0.234375 -0.203125 -0.59375zm3.4921875 6.390625q0 -1.234375 0.484375 -2.21875q0.484375 -1.0 1.359375 -1.53125q0.875 -0.546875 1.984375 -0.546875q1.734375 0 2.796875 1.203125q1.0625 1.1875 1.0625 3.171875l0 0.09375q0 1.234375 -0.46875 2.21875q-0.46875 0.984375 -1.359375 1.53125q-0.875 0.546875 -2.015625 0.546875q-1.71875 0 -2.78125 -1.1875q-1.0625 -1.203125 -1.0625 -3.171875l0 -0.109375zm1.453125 0.171875q0 1.40625 0.640625 2.265625q0.65625 0.84375 1.75 0.84375q1.109375 0 1.75 -0.859375q0.65625 -0.859375 0.65625 -2.421875q0 -1.390625 -0.671875 -2.25q-0.65625 -0.859375 -1.75 -0.859375q-1.0625 0 -1.71875 0.859375q-0.65625 0.84375 -0.65625 2.421875zm9.421875 -4.3125l0.046875 1.0625q0.96875 -1.21875 2.53125 -1.21875q2.671875 0 2.703125 3.015625l0 5.59375l-1.453125 0l0 -5.59375q0 -0.921875 -0.421875 -1.359375q-0.40625 -0.4375 -1.265625 -0.4375q-0.703125 0 -1.234375 0.375q-0.53125 0.375 -0.828125 0.984375l0 6.03125l-1.453125 0l0 -8.453125l1.375 0zm12.375 6.203125q0 -0.578125 -0.4375 -0.90625q-0.4375 -0.328125 -1.546875 -0.5625q-1.09375 -0.234375 -1.734375 -0.5625q-0.640625 -0.328125 -0.953125 -0.78125q-0.3125 -0.453125 -0.3125 -1.078125q0 -1.03125 0.875 -1.75q0.890625 -0.71875 2.25 -0.71875q1.4375 0 2.328125 0.75q0.90625 0.734375 0.90625 1.890625l-1.453125 0q0 -0.59375 -0.515625 -1.015625q-0.5 -0.4375 -1.265625 -0.4375q-0.78125 0 -1.234375 0.34375q-0.4375 0.34375 -0.4375 0.890625q0 0.53125 0.40625 0.796875q0.421875 0.265625 1.5 0.515625q1.078125 0.234375 1.75 0.578125q0.671875 0.328125 1.0 0.796875q0.328125 0.46875 0.328125 1.15625q0 1.125 -0.90625 1.8125q-0.90625 0.6875 -2.359375 0.6875q-1.015625 0 -1.796875 -0.359375q-0.78125 -0.359375 -1.21875 -1.0q-0.4375 -0.65625 -0.4375 -1.40625l1.4375 0q0.046875 0.734375 0.578125 1.15625q0.546875 0.421875 1.4375 0.421875q0.828125 0 1.3125 -0.328125q0.5 -0.328125 0.5 -0.890625z" fill-rule="nonzero"/><path fill="#000000" fill-opacity="0.0" d="m180.9304 85.35448l82.17323 0l0 36.0l-82.17323 0z" fill-rule="evenodd"/><path fill="#000000" d="m212.86194 103.688225l0 0.90625l-5.03125 0q-0.015625 -0.34375 0.109375 -0.65625q0.1875 -0.515625 0.609375 -1.015625q0.421875 -0.5 1.234375 -1.140625q1.234375 -1.03125 1.671875 -1.625q0.4375 -0.59375 0.4375 -1.125q0 -0.5625 -0.40625 -0.9375q-0.390625 -0.390625 -1.03125 -0.390625q-0.671875 0 -1.078125 0.40625q-0.40625 0.40625 -0.40625 1.125l-0.96875 -0.09375q0.09375 -1.078125 0.734375 -1.640625q0.65625 -0.5625 1.734375 -0.5625q1.109375 0 1.75 0.609375q0.640625 0.609375 0.640625 1.5q0 0.46875 -0.1875 0.90625q-0.1875 0.4375 -0.625 0.9375q-0.4375 0.484375 -1.453125 1.328125q-0.828125 0.71875 -1.078125 0.96875q-0.234375 0.25 -0.390625 0.5l3.734375 0zm1.0046234 -2.859375q0 -1.34375 0.28125 -2.171875q0.28125 -0.828125 0.828125 -1.265625q0.546875 -0.453125 1.375 -0.453125q0.625 0 1.078125 0.25q0.46875 0.234375 0.765625 0.703125q0.3125 0.46875 0.484375 1.140625q0.171875 0.671875 0.171875 1.796875q0 1.34375 -0.28125 2.171875q-0.28125 0.828125 -0.828125 1.28125q-0.546875 0.4375 -1.390625 0.4375q-1.09375 0 -1.71875 -0.78125q-0.765625 -0.953125 -0.765625 -3.109375zm0.96875 0q0 1.875 0.4375 2.5q0.4375 0.625 1.078125 0.625q0.65625 0 1.09375 -0.625q0.4375 -0.625 0.4375 -2.5q0 -1.875 -0.4375 -2.5q-0.4375 -0.625 -1.09375 -0.625q-0.640625 0 -1.03125 0.546875q-0.484375 0.703125 -0.484375 2.578125zm7.559021 3.765625l2.015625 -2.875l-1.859375 -2.65625l1.171875 0l0.84375 1.296875q0.234375 0.375 0.390625 0.625q0.21875 -0.34375 0.40625 -0.609375l0.9375 -1.3125l1.125 0l-1.921875 2.609375l2.0625 2.921875l-1.15625 0l-1.125 -1.71875l-0.296875 -0.46875l-1.453125 2.1875l-1.140625 0zm12.179398 0l-0.9375 0l0 -5.96875q-0.34375 0.328125 -0.890625 0.65625q-0.546875 0.3125 -0.984375 0.46875l0 -0.90625q0.796875 -0.359375 1.375 -0.890625q0.59375 -0.53125 0.828125 -1.015625l0.609375 0l0 7.65625z" fill-rule="nonzero"/><path fill="#000000" d="m195.46292 117.594475l0 -7.625l0.9375 0l0 7.625l-0.9375 0zm2.3831024 -6.546875l0 -1.078125l0.9375 0l0 1.078125l-0.9375 0zm0 6.546875l0 -5.53125l0.9375 0l0 5.53125l-0.9375 0zm2.3674774 0l0 -5.53125l0.84375 0l0 0.796875q0.609375 -0.921875 1.75 -0.921875q0.5 0 0.921875 0.1875q0.421875 0.171875 0.625 0.46875q0.21875 0.296875 0.296875 0.6875q0.046875 0.265625 0.046875 0.921875l0 3.390625l-0.9375 0l0 -3.359375q0 -0.578125 -0.109375 -0.859375q-0.109375 -0.28125 -0.390625 -0.453125q-0.265625 -0.171875 -0.640625 -0.171875q-0.59375 0 -1.03125 0.390625q-0.4375 0.375 -0.4375 1.4375l0 3.015625l-0.9375 0zm9.707748 -1.78125l0.96875 0.125q-0.234375 0.84375 -0.859375 1.3125q-0.609375 0.46875 -1.578125 0.46875q-1.203125 0 -1.921875 -0.75q-0.703125 -0.75 -0.703125 -2.09375q0 -1.390625 0.71875 -2.15625q0.71875 -0.78125 1.859375 -0.78125q1.109375 0 1.8125 0.765625q0.703125 0.75 0.703125 2.125q0 0.078125 0 0.234375l-4.125 0q0.046875 0.921875 0.515625 1.40625q0.46875 0.484375 1.15625 0.484375q0.515625 0 0.875 -0.265625q0.359375 -0.28125 0.578125 -0.875zm-3.078125 -1.515625l3.09375 0q-0.0625 -0.6875 -0.359375 -1.046875q-0.453125 -0.53125 -1.15625 -0.53125q-0.640625 0 -1.09375 0.4375q-0.4375 0.421875 -0.484375 1.140625zm8.832748 2.609375q-0.53125 0.453125 -1.015625 0.640625q-0.46875 0.171875 -1.015625 0.171875q-0.921875 0 -1.40625 -0.4375q-0.484375 -0.453125 -0.484375 -1.140625q0 -0.40625 0.171875 -0.734375q0.1875 -0.34375 0.484375 -0.546875q0.3125 -0.203125 0.6875 -0.3125q0.265625 -0.0625 0.828125 -0.140625q1.125 -0.125 1.671875 -0.3125q0 -0.203125 0 -0.25q0 -0.578125 -0.265625 -0.8125q-0.359375 -0.3125 -1.0625 -0.3125q-0.65625 0 -0.984375 0.234375q-0.3125 0.234375 -0.453125 0.8125l-0.921875 -0.125q0.125 -0.578125 0.40625 -0.9375q0.296875 -0.375 0.828125 -0.5625q0.546875 -0.203125 1.25 -0.203125q0.71875 0 1.15625 0.171875q0.4375 0.171875 0.640625 0.421875q0.21875 0.25 0.296875 0.640625q0.046875 0.234375 0.046875 0.859375l0 1.25q0 1.296875 0.0625 1.65625q0.0625 0.34375 0.234375 0.65625l-0.96875 0q-0.15625 -0.296875 -0.1875 -0.6875zm-0.078125 -2.078125q-0.515625 0.203125 -1.53125 0.34375q-0.578125 0.078125 -0.828125 0.1875q-0.234375 0.109375 -0.359375 0.3125q-0.125 0.1875 -0.125 0.4375q0 0.375 0.28125 0.625q0.28125 0.25 0.828125 0.25q0.53125 0 0.953125 -0.234375q0.421875 -0.234375 0.625 -0.65625q0.15625 -0.3125 0.15625 -0.9375l0 -0.328125zm2.3796234 2.765625l0 -5.53125l0.84375 0l0 0.84375q0.328125 -0.59375 0.59375 -0.78125q0.28125 -0.1875 0.609375 -0.1875q0.46875 0 0.953125 0.3125l-0.3125 0.859375q-0.34375 -0.203125 -0.6875 -0.203125q-0.3125 0 -0.5625 0.1875q-0.234375 0.1875 -0.34375 0.515625q-0.15625 0.5 -0.15625 1.09375l0 2.890625l-0.9375 0zm6.743637 0l0 -4.796875l-0.828125 0l0 -0.734375l0.828125 0l0 -0.578125q0 -0.5625 0.109375 -0.828125q0.125 -0.375 0.46875 -0.59375q0.34375 -0.234375 0.953125 -0.234375q0.390625 0 0.875 0.09375l-0.140625 0.828125q-0.296875 -0.0625 -0.546875 -0.0625q-0.421875 0 -0.609375 0.1875q-0.171875 0.1875 -0.171875 0.6875l0 0.5l1.078125 0l0 0.734375l-1.078125 0l0 4.796875l-0.9375 0zm2.7418976 -6.546875l0 -1.078125l0.9375 0l0 1.078125l-0.9375 0zm0 6.546875l0 -5.53125l0.9375 0l0 5.53125l-0.9375 0zm2.3518524 0l0 -7.625l0.9375 0l0 7.625l-0.9375 0zm4.4299774 -0.84375l0.125 0.828125q-0.390625 0.09375 -0.703125 0.09375q-0.5 0 -0.78125 -0.15625q-0.28125 -0.171875 -0.40625 -0.4375q-0.109375 -0.265625 -0.109375 -1.109375l0 -3.171875l-0.6875 0l0 -0.734375l0.6875 0l0 -1.359375l0.9375 -0.5625l0 1.921875l0.9375 0l0 0.734375l-0.9375 0l0 3.234375q0 0.390625 0.046875 0.515625q0.046875 0.109375 0.15625 0.1875q0.109375 0.0625 0.328125 0.0625q0.15625 0 0.40625 -0.046875zm4.6950226 -0.9375l0.96875 0.125q-0.234375 0.84375 -0.859375 1.3125q-0.609375 0.46875 -1.578125 0.46875q-1.203125 0 -1.921875 -0.75q-0.703125 -0.75 -0.703125 -2.09375q0 -1.390625 0.71875 -2.15625q0.71875 -0.78125 1.859375 -0.78125q1.109375 0 1.8125 0.765625q0.703125 0.75 0.703125 2.125q0 0.078125 0 0.234375l-4.125 0q0.046875 0.921875 0.515625 1.40625q0.46875 0.484375 1.15625 0.484375q0.515625 0 0.875 -0.265625q0.359375 -0.28125 0.578125 -0.875zm-3.078125 -1.515625l3.09375 0q-0.0625 -0.6875 -0.359375 -1.046875q-0.453125 -0.53125 -1.15625 -0.53125q-0.640625 0 -1.09375 0.4375q-0.4375 0.421875 -0.484375 1.140625zm5.2077484 3.296875l0 -5.53125l0.84375 0l0 0.84375q0.328125 -0.59375 0.59375 -0.78125q0.28125 -0.1875 0.609375 -0.1875q0.46875 0 0.953125 0.3125l-0.3125 0.859375q-0.34375 -0.203125 -0.6875 -0.203125q-0.3125 0 -0.5625 0.1875q-0.234375 0.1875 -0.34375 0.515625q-0.15625 0.5 -0.15625 1.09375l0 2.890625l-0.9375 0zm3.1892395 -1.65625l0.921875 -0.140625q0.078125 0.5625 0.4375 0.859375q0.359375 0.296875 1.0 0.296875q0.640625 0 0.953125 -0.265625q0.3125 -0.265625 0.3125 -0.625q0 -0.3125 -0.28125 -0.5q-0.1875 -0.125 -0.953125 -0.3125q-1.03125 -0.265625 -1.4375 -0.453125q-0.390625 -0.1875 -0.59375 -0.515625q-0.203125 -0.34375 -0.203125 -0.75q0 -0.359375 0.171875 -0.671875q0.171875 -0.328125 0.453125 -0.53125q0.21875 -0.15625 0.59375 -0.265625q0.390625 -0.125 0.8125 -0.125q0.65625 0 1.140625 0.1875q0.5 0.1875 0.734375 0.515625q0.234375 0.3125 0.3125 0.859375l-0.90625 0.125q-0.0625 -0.4375 -0.375 -0.671875q-0.296875 -0.234375 -0.828125 -0.234375q-0.65625 0 -0.9375 0.21875q-0.265625 0.203125 -0.265625 0.484375q0 0.1875 0.109375 0.328125q0.125 0.15625 0.359375 0.25q0.140625 0.0625 0.828125 0.25q1.0 0.265625 1.390625 0.4375q0.390625 0.15625 0.609375 0.484375q0.234375 0.3125 0.234375 0.796875q0 0.46875 -0.28125 0.890625q-0.265625 0.40625 -0.78125 0.640625q-0.515625 0.21875 -1.171875 0.21875q-1.078125 0 -1.640625 -0.4375q-0.5625 -0.453125 -0.71875 -1.34375z" fill-rule="nonzero"/><path fill="#000000" fill-opacity="0.0" d="m180.93121 107.75287l82.17322 0" fill-rule="evenodd"/><path stroke="#595959" stroke-width="1.0" stroke-linejoin="round" stroke-linecap="butt" d="m180.93123 107.75287l76.17323 0" fill-rule="evenodd"/><path fill="#595959" stroke="#595959" stroke-width="1.0" stroke-linecap="butt" d="m257.10446 109.4046l4.538086 -1.6517334l-4.538086 -1.6517334z" fill-rule="evenodd"/><path fill="#000000" fill-opacity="0.0" d="m413.7228 85.354195l103.71652 0l0 49.574806l-103.71652 0z" fill-rule="evenodd"/><path fill="#000000" d="m440.98273 104.5942l2.921875 -7.625l1.09375 0l3.125 7.625l-1.15625 0l-0.890625 -2.3125l-3.1875 0l-0.828125 2.3125l-1.078125 0zm2.203125 -3.125l2.578125 0l-0.796875 -2.125q-0.359375 -0.953125 -0.53125 -1.578125q-0.15625 0.734375 -0.421875 1.453125l-0.828125 2.25zm9.2013855 3.125l0 -0.703125q-0.515625 0.828125 -1.546875 0.828125q-0.65625 0 -1.21875 -0.359375q-0.546875 -0.375 -0.859375 -1.015625q-0.296875 -0.65625 -0.296875 -1.5q0 -0.828125 0.28125 -1.5q0.28125 -0.6875 0.828125 -1.046875q0.546875 -0.359375 1.234375 -0.359375q0.5 0 0.890625 0.21875q0.390625 0.203125 0.625 0.546875l0 -2.734375l0.9375 0l0 7.625l-0.875 0zm-2.953125 -2.75q0 1.046875 0.4375 1.578125q0.453125 0.53125 1.0625 0.53125q0.609375 0 1.03125 -0.5q0.4375 -0.515625 0.4375 -1.53125q0 -1.140625 -0.4375 -1.671875q-0.4375 -0.53125 -1.078125 -0.53125q-0.609375 0 -1.03125 0.515625q-0.421875 0.5 -0.421875 1.609375zm5.301483 -3.796875l0 -1.078125l0.9375 0l0 1.078125l-0.9375 0zm-1.1875 8.6875l0.171875 -0.796875q0.28125 0.078125 0.4375 0.078125q0.296875 0 0.4375 -0.1875q0.140625 -0.1875 0.140625 -0.953125l0 -5.8125l0.9375 0l0 5.828125q0 1.03125 -0.265625 1.421875q-0.34375 0.53125 -1.125 0.53125q-0.390625 0 -0.734375 -0.109375zm7.1643677 -2.828125q-0.53125 0.453125 -1.015625 0.640625q-0.46875 0.171875 -1.015625 0.171875q-0.921875 0 -1.40625 -0.4375q-0.484375 -0.453125 -0.484375 -1.140625q0 -0.40625 0.171875 -0.734375q0.1875 -0.34375 0.484375 -0.546875q0.3125 -0.203125 0.6875 -0.3125q0.265625 -0.0625 0.828125 -0.140625q1.125 -0.125 1.671875 -0.3125q0 -0.203125 0 -0.25q0 -0.578125 -0.265625 -0.8125q-0.359375 -0.3125 -1.0625 -0.3125q-0.65625 0 -0.984375 0.234375q-0.3125 0.234375 -0.453125 0.8125l-0.921875 -0.125q0.125 -0.578125 0.40625 -0.9375q0.296875 -0.375 0.828125 -0.5625q0.546875 -0.203125 1.25 -0.203125q0.71875 0 1.15625 0.171875q0.4375 0.171875 0.640625 0.421875q0.21875 0.25 0.296875 0.640625q0.046875 0.234375 0.046875 0.859375l0 1.25q0 1.296875 0.0625 1.65625q0.0625 0.34375 0.234375 0.65625l-0.96875 0q-0.15625 -0.296875 -0.1875 -0.6875zm-0.078125 -2.078125q-0.515625 0.203125 -1.53125 0.34375q-0.578125 0.078125 -0.828125 0.1875q-0.234375 0.109375 -0.359375 0.3125q-0.125 0.1875 -0.125 0.4375q0 0.375 0.28125 0.625q0.28125 0.25 0.828125 0.25q0.53125 0 0.953125 -0.234375q0.421875 -0.234375 0.625 -0.65625q0.15625 -0.3125 0.15625 -0.9375l0 -0.328125zm6.004608 0.734375l0.921875 0.125q-0.15625 0.953125 -0.78125 1.5q-0.625 0.53125 -1.53125 0.53125q-1.125 0 -1.8125 -0.734375q-0.6875 -0.75 -0.6875 -2.125q0 -0.90625 0.296875 -1.578125q0.296875 -0.671875 0.890625 -1.0q0.609375 -0.34375 1.328125 -0.34375q0.890625 0 1.46875 0.46875q0.578125 0.453125 0.734375 1.28125l-0.90625 0.140625q-0.140625 -0.546875 -0.46875 -0.828125q-0.328125 -0.28125 -0.796875 -0.28125q-0.703125 0 -1.15625 0.515625q-0.4375 0.5 -0.4375 1.59375q0 1.109375 0.421875 1.625q0.4375 0.5 1.125 0.5q0.546875 0 0.90625 -0.34375q0.375 -0.34375 0.484375 -1.046875zm5.5 0.25l0.96875 0.125q-0.234375 0.84375 -0.859375 1.3125q-0.609375 0.46875 -1.578125 0.46875q-1.203125 0 -1.921875 -0.75q-0.703125 -0.75 -0.703125 -2.09375q0 -1.390625 0.71875 -2.15625q0.71875 -0.78125 1.859375 -0.78125q1.109375 0 1.8125 0.765625q0.703125 0.75 0.703125 2.125q0 0.078125 0 0.234375l-4.125 0q0.046875 0.921875 0.515625 1.40625q0.46875 0.484375 1.15625 0.484375q0.515625 0 0.875 -0.265625q0.359375 -0.28125 0.578125 -0.875zm-3.078125 -1.515625l3.09375 0q-0.0625 -0.6875 -0.359375 -1.046875q-0.453125 -0.53125 -1.15625 -0.53125q-0.640625 0 -1.09375 0.4375q-0.4375 0.421875 -0.484375 1.140625zm5.2233887 3.296875l0 -5.53125l0.84375 0l0 0.796875q0.609375 -0.921875 1.75 -0.921875q0.5 0 0.921875 0.1875q0.421875 0.171875 0.625 0.46875q0.21875 0.296875 0.296875 0.6875q0.046875 0.265625 0.046875 0.921875l0 3.390625l-0.9375 0l0 -3.359375q0 -0.578125 -0.109375 -0.859375q-0.109375 -0.28125 -0.390625 -0.453125q-0.265625 -0.171875 -0.640625 -0.171875q-0.59375 0 -1.03125 0.390625q-0.4375 0.375 -0.4375 1.4375l0 3.015625l-0.9375 0zm9.535858 -2.03125l0.921875 0.125q-0.15625 0.953125 -0.78125 1.5q-0.625 0.53125 -1.53125 0.53125q-1.125 0 -1.8125 -0.734375q-0.6875 -0.75 -0.6875 -2.125q0 -0.90625 0.296875 -1.578125q0.296875 -0.671875 0.890625 -1.0q0.609375 -0.34375 1.328125 -0.34375q0.890625 0 1.46875 0.46875q0.578125 0.453125 0.734375 1.28125l-0.90625 0.140625q-0.140625 -0.546875 -0.46875 -0.828125q-0.328125 -0.28125 -0.796875 -0.28125q-0.703125 0 -1.15625 0.515625q-0.4375 0.5 -0.4375 1.59375q0 1.109375 0.421875 1.625q0.4375 0.5 1.125 0.5q0.546875 0 0.90625 -0.34375q0.375 -0.34375 0.484375 -1.046875zm1.671875 4.15625l-0.09375 -0.875q0.296875 0.078125 0.53125 0.078125q0.3125 0 0.5 -0.109375q0.1875 -0.09375 0.3125 -0.28125q0.078125 -0.140625 0.28125 -0.703125q0.03125 -0.078125 0.078125 -0.21875l-2.09375 -5.546875l1.015625 0l1.140625 3.203125q0.234375 0.609375 0.40625 1.28125q0.15625 -0.640625 0.375 -1.265625l1.1875 -3.21875l0.9375 0l-2.109375 5.625q-0.328125 0.90625 -0.515625 1.25q-0.25 0.46875 -0.578125 0.6875q-0.3125 0.21875 -0.765625 0.21875q-0.265625 0 -0.609375 -0.125z" fill-rule="nonzero"/><path fill="#000000" d="m429.60745 115.56294l0.921875 0.125q-0.15625 0.953125 -0.78125 1.5q-0.625 0.53125 -1.53125 0.53125q-1.125 0 -1.8125 -0.734375q-0.6875 -0.75 -0.6875 -2.125q0 -0.90625 0.296875 -1.578125q0.296875 -0.671875 0.890625 -1.0q0.609375 -0.34375 1.328125 -0.34375q0.890625 0 1.46875 0.46875q0.578125 0.453125 0.734375 1.28125l-0.90625 0.140625q-0.140625 -0.546875 -0.46875 -0.828125q-0.328125 -0.28125 -0.796875 -0.28125q-0.703125 0 -1.15625 0.515625q-0.4375 0.5 -0.4375 1.59375q0 1.109375 0.421875 1.625q0.4375 0.5 1.125 0.5q0.546875 0 0.90625 -0.34375q0.375 -0.34375 0.484375 -1.046875zm1.375 -0.734375q0 -1.53125 0.84375 -2.265625q0.71875 -0.625 1.734375 -0.625q1.140625 0 1.859375 0.75q0.734375 0.75 0.734375 2.0625q0 1.0625 -0.328125 1.6875q-0.3125 0.609375 -0.921875 0.953125q-0.609375 0.328125 -1.34375 0.328125q-1.15625 0 -1.875 -0.734375q-0.703125 -0.75 -0.703125 -2.15625zm0.953125 0q0 1.0625 0.46875 1.59375q0.46875 0.53125 1.15625 0.53125q0.703125 0 1.15625 -0.53125q0.46875 -0.53125 0.46875 -1.625q0 -1.015625 -0.46875 -1.546875q-0.453125 -0.53125 -1.15625 -0.53125q-0.6875 0 -1.15625 0.53125q-0.46875 0.515625 -0.46875 1.578125zm5.317108 2.765625l0 -5.53125l0.84375 0l0 0.796875q0.609375 -0.921875 1.75 -0.921875q0.5 0 0.921875 0.1875q0.421875 0.171875 0.625 0.46875q0.21875 0.296875 0.296875 0.6875q0.046875 0.265625 0.046875 0.921875l0 3.390625l-0.9375 0l0 -3.359375q0 -0.578125 -0.109375 -0.859375q-0.109375 -0.28125 -0.390625 -0.453125q-0.265625 -0.171875 -0.640625 -0.171875q-0.59375 0 -1.03125 0.390625q-0.4375 0.375 -0.4375 1.4375l0 3.015625l-0.9375 0zm7.4577637 0l-2.09375 -5.53125l0.984375 0l1.1875 3.3125q0.1875 0.53125 0.359375 1.109375q0.109375 -0.4375 0.34375 -1.046875l1.21875 -3.375l0.96875 0l-2.09375 5.53125l-0.875 0zm3.453125 -2.765625q0 -1.53125 0.84375 -2.265625q0.71875 -0.625 1.734375 -0.625q1.140625 0 1.859375 0.75q0.734375 0.75 0.734375 2.0625q0 1.0625 -0.328125 1.6875q-0.3125 0.609375 -0.921875 0.953125q-0.609375 0.328125 -1.34375 0.328125q-1.15625 0 -1.875 -0.734375q-0.703125 -0.75 -0.703125 -2.15625zm0.953125 0q0 1.0625 0.46875 1.59375q0.46875 0.53125 1.15625 0.53125q0.703125 0 1.15625 -0.53125q0.46875 -0.53125 0.46875 -1.625q0 -1.015625 -0.46875 -1.546875q-0.453125 -0.53125 -1.15625 -0.53125q-0.6875 0 -1.15625 0.53125q-0.46875 0.515625 -0.46875 1.578125zm5.301483 2.765625l0 -7.625l0.9375 0l0 7.625l-0.9375 0zm6.0081177 0l0 -0.8125q-0.65625 0.9375 -1.75 0.9375q-0.5 0 -0.921875 -0.1875q-0.421875 -0.1875 -0.625 -0.46875q-0.203125 -0.28125 -0.296875 -0.703125q-0.046875 -0.265625 -0.046875 -0.875l0 -3.421875l0.9375 0l0 3.0625q0 0.734375 0.046875 1.0q0.09375 0.359375 0.375 0.578125q0.296875 0.203125 0.703125 0.203125q0.421875 0 0.796875 -0.203125q0.375 -0.21875 0.515625 -0.59375q0.15625 -0.375 0.15625 -1.078125l0 -2.96875l0.9375 0l0 5.53125l-0.828125 0zm4.348358 -0.84375l0.125 0.828125q-0.390625 0.09375 -0.703125 0.09375q-0.5 0 -0.78125 -0.15625q-0.28125 -0.171875 -0.40625 -0.4375q-0.109375 -0.265625 -0.109375 -1.109375l0 -3.171875l-0.6875 0l0 -0.734375l0.6875 0l0 -1.359375l0.9375 -0.5625l0 1.921875l0.9375 0l0 0.734375l-0.9375 0l0 3.234375q0 0.390625 0.046875 0.515625q0.046875 0.109375 0.15625 0.1875q0.109375 0.0625 0.328125 0.0625q0.15625 0 0.40625 -0.046875zm0.91378784 -5.703125l0 -1.078125l0.9375 0l0 1.078125l-0.9375 0zm0 6.546875l0 -5.53125l0.9375 0l0 5.53125l-0.9375 0zm2.0237122 -2.765625q0 -1.53125 0.84375 -2.265625q0.71875 -0.625 1.734375 -0.625q1.140625 0 1.859375 0.75q0.734375 0.75 0.734375 2.0625q0 1.0625 -0.328125 1.6875q-0.3125 0.609375 -0.921875 0.953125q-0.609375 0.328125 -1.34375 0.328125q-1.15625 0 -1.875 -0.734375q-0.703125 -0.75 -0.703125 -2.15625zm0.953125 0q0 1.0625 0.46875 1.59375q0.46875 0.53125 1.15625 0.53125q0.703125 0 1.15625 -0.53125q0.46875 -0.53125 0.46875 -1.625q0 -1.015625 -0.46875 -1.546875q-0.453125 -0.53125 -1.15625 -0.53125q-0.6875 0 -1.15625 0.53125q-0.46875 0.515625 -0.46875 1.578125zm5.3171387 2.765625l0 -5.53125l0.84375 0l0 0.796875q0.609375 -0.921875 1.75 -0.921875q0.5 0 0.921875 0.1875q0.421875 0.171875 0.625 0.46875q0.21875 0.296875 0.296875 0.6875q0.046875 0.265625 0.046875 0.921875l0 3.390625l-0.9375 0l0 -3.359375q0 -0.578125 -0.109375 -0.859375q-0.109375 -0.28125 -0.390625 -0.453125q-0.265625 -0.171875 -0.640625 -0.171875q-0.59375 0 -1.03125 0.390625q-0.4375 0.375 -0.4375 1.4375l0 3.015625l-0.9375 0zm8.543396 -2.765625q0 -1.53125 0.84375 -2.265625q0.71875 -0.625 1.734375 -0.625q1.140625 0 1.859375 0.75q0.734375 0.75 0.734375 2.0625q0 1.0625 -0.328125 1.6875q-0.3125 0.609375 -0.921875 0.953125q-0.609375 0.328125 -1.34375 0.328125q-1.15625 0 -1.875 -0.734375q-0.703125 -0.75 -0.703125 -2.15625zm0.953125 0q0 1.0625 0.46875 1.59375q0.46875 0.53125 1.15625 0.53125q0.703125 0 1.15625 -0.53125q0.46875 -0.53125 0.46875 -1.625q0 -1.015625 -0.46875 -1.546875q-0.453125 -0.53125 -1.15625 -0.53125q-0.6875 0 -1.15625 0.53125q-0.46875 0.515625 -0.46875 1.578125zm5.317108 2.765625l0 -5.53125l0.84375 0l0 0.796875q0.609375 -0.921875 1.75 -0.921875q0.5 0 0.921875 0.1875q0.421875 0.171875 0.625 0.46875q0.21875 0.296875 0.296875 0.6875q0.046875 0.265625 0.046875 0.921875l0 3.390625l-0.9375 0l0 -3.359375q0 -0.578125 -0.109375 -0.859375q-0.109375 -0.28125 -0.390625 -0.453125q-0.265625 -0.171875 -0.640625 -0.171875q-0.59375 0 -1.03125 0.390625q-0.4375 0.375 -0.4375 1.4375l0 3.015625l-0.9375 0zm9.371521 0.296875l5.734375 -8.0625l0.8125 0l-5.734375 8.0625l-0.8125 0zm0.53125 -4.109375l0 -2.890625q-0.53125 0.421875 -1.15625 0.59375l0 -0.640625q0.3125 -0.109375 0.703125 -0.375q0.40625 -0.28125 0.65625 -0.59375l0.5625 0l0 3.90625l-0.765625 0zm3.734375 3.96875q0.03125 -0.28125 0.25 -0.578125q0.328125 -0.453125 1.078125 -1.0q0.75 -0.546875 0.890625 -0.703125q0.1875 -0.21875 0.1875 -0.4375q0 -0.25 -0.1875 -0.40625q-0.171875 -0.15625 -0.53125 -0.15625q-0.34375 0 -0.515625 0.125q-0.15625 0.125 -0.265625 0.453125l-0.796875 -0.078125q0.15625 -0.578125 0.53125 -0.84375q0.375 -0.28125 1.0625 -0.28125q0.796875 0 1.15625 0.3125q0.359375 0.3125 0.359375 0.75q0 0.4375 -0.296875 0.828125q-0.234375 0.28125 -1.0625 0.890625q-0.4375 0.3125 -0.625 0.5l2.015625 0l0 0.625l-3.25 0z" fill-rule="nonzero"/><path fill="#000000" d="m440.76456 127.82857q0 -1.53125 0.84375 -2.265625q0.71875 -0.625 1.734375 -0.625q1.140625 0 1.859375 0.75q0.734375 0.75 0.734375 2.0625q0 1.0625 -0.328125 1.6875q-0.3125 0.609375 -0.921875 0.953125q-0.609375 0.328125 -1.34375 0.328125q-1.15625 0 -1.875 -0.734375q-0.703125 -0.75 -0.703125 -2.15625zm0.953125 0q0 1.0625 0.46875 1.59375q0.46875 0.53125 1.15625 0.53125q0.703125 0 1.15625 -0.53125q0.46875 -0.53125 0.46875 -1.625q0 -1.015625 -0.46875 -1.546875q-0.453125 -0.53125 -1.15625 -0.53125q-0.6875 0 -1.15625 0.53125q-0.46875 0.515625 -0.46875 1.578125zm5.535858 2.765625l0 -4.796875l-0.828125 0l0 -0.734375l0.828125 0l0 -0.578125q0 -0.5625 0.109375 -0.828125q0.125 -0.375 0.46875 -0.59375q0.34375 -0.234375 0.953125 -0.234375q0.390625 0 0.875 0.09375l-0.140625 0.828125q-0.296875 -0.0625 -0.546875 -0.0625q-0.421875 0 -0.609375 0.1875q-0.171875 0.1875 -0.171875 0.6875l0 0.5l1.078125 0l0 0.734375l-1.078125 0l0 4.796875l-0.9375 0zm5.921295 0l0 -4.796875l-0.828125 0l0 -0.734375l0.828125 0l0 -0.578125q0 -0.5625 0.109375 -0.828125q0.125 -0.375 0.46875 -0.59375q0.34375 -0.234375 0.953125 -0.234375q0.390625 0 0.875 0.09375l-0.140625 0.828125q-0.296875 -0.0625 -0.546875 -0.0625q-0.421875 0 -0.609375 0.1875q-0.171875 0.1875 -0.171875 0.6875l0 0.5l1.078125 0l0 0.734375l-1.078125 0l0 4.796875l-0.9375 0zm6.523163 -1.78125l0.96875 0.125q-0.234375 0.84375 -0.859375 1.3125q-0.609375 0.46875 -1.578125 0.46875q-1.203125 0 -1.921875 -0.75q-0.703125 -0.75 -0.703125 -2.09375q0 -1.390625 0.71875 -2.15625q0.71875 -0.78125 1.859375 -0.78125q1.109375 0 1.8125 0.765625q0.703125 0.75 0.703125 2.125q0 0.078125 0 0.234375l-4.125 0q0.046875 0.921875 0.515625 1.40625q0.46875 0.484375 1.15625 0.484375q0.515625 0 0.875 -0.265625q0.359375 -0.28125 0.578125 -0.875zm-3.078125 -1.515625l3.09375 0q-0.0625 -0.6875 -0.359375 -1.046875q-0.453125 -0.53125 -1.15625 -0.53125q-0.640625 0 -1.09375 0.4375q-0.4375 0.421875 -0.484375 1.140625zm8.832733 2.609375q-0.53125 0.453125 -1.015625 0.640625q-0.46875 0.171875 -1.015625 0.171875q-0.921875 0 -1.40625 -0.4375q-0.484375 -0.453125 -0.484375 -1.140625q0 -0.40625 0.171875 -0.734375q0.1875 -0.34375 0.484375 -0.546875q0.3125 -0.203125 0.6875 -0.3125q0.265625 -0.0625 0.828125 -0.140625q1.125 -0.125 1.671875 -0.3125q0 -0.203125 0 -0.25q0 -0.578125 -0.265625 -0.8125q-0.359375 -0.3125 -1.0625 -0.3125q-0.65625 0 -0.984375 0.234375q-0.3125 0.234375 -0.453125 0.8125l-0.921875 -0.125q0.125 -0.578125 0.40625 -0.9375q0.296875 -0.375 0.828125 -0.5625q0.546875 -0.203125 1.25 -0.203125q0.71875 0 1.15625 0.171875q0.4375 0.171875 0.640625 0.421875q0.21875 0.25 0.296875 0.640625q0.046875 0.234375 0.046875 0.859375l0 1.25q0 1.296875 0.0625 1.65625q0.0625 0.34375 0.234375 0.65625l-0.96875 0q-0.15625 -0.296875 -0.1875 -0.6875zm-0.078125 -2.078125q-0.515625 0.203125 -1.53125 0.34375q-0.578125 0.078125 -0.828125 0.1875q-0.234375 0.109375 -0.359375 0.3125q-0.125 0.1875 -0.125 0.4375q0 0.375 0.28125 0.625q0.28125 0.25 0.828125 0.25q0.53125 0 0.953125 -0.234375q0.421875 -0.234375 0.625 -0.65625q0.15625 -0.3125 0.15625 -0.9375l0 -0.328125zm4.4421387 1.921875l0.125 0.828125q-0.390625 0.09375 -0.703125 0.09375q-0.5 0 -0.78125 -0.15625q-0.28125 -0.171875 -0.40625 -0.4375q-0.109375 -0.265625 -0.109375 -1.109375l0 -3.171875l-0.6875 0l0 -0.734375l0.6875 0l0 -1.359375l0.9375 -0.5625l0 1.921875l0.9375 0l0 0.734375l-0.9375 0l0 3.234375q0 0.390625 0.046875 0.515625q0.046875 0.109375 0.15625 0.1875q0.109375 0.0625 0.328125 0.0625q0.15625 0 0.40625 -0.046875zm4.5387573 0.84375l0 -0.8125q-0.65625 0.9375 -1.75 0.9375q-0.5 0 -0.921875 -0.1875q-0.421875 -0.1875 -0.625 -0.46875q-0.203125 -0.28125 -0.296875 -0.703125q-0.046875 -0.265625 -0.046875 -0.875l0 -3.421875l0.9375 0l0 3.0625q0 0.734375 0.046875 1.0q0.09375 0.359375 0.375 0.578125q0.296875 0.203125 0.703125 0.203125q0.421875 0 0.796875 -0.203125q0.375 -0.21875 0.515625 -0.59375q0.15625 -0.375 0.15625 -1.078125l0 -2.96875l0.9375 0l0 5.53125l-0.828125 0zm2.2858887 0l0 -5.53125l0.84375 0l0 0.84375q0.328125 -0.59375 0.59375 -0.78125q0.28125 -0.1875 0.609375 -0.1875q0.46875 0 0.953125 0.3125l-0.3125 0.859375q-0.34375 -0.203125 -0.6875 -0.203125q-0.3125 0 -0.5625 0.1875q-0.234375 0.1875 -0.34375 0.515625q-0.15625 0.5 -0.15625 1.09375l0 2.890625l-0.9375 0zm7.3454895 -1.78125l0.96875 0.125q-0.234375 0.84375 -0.859375 1.3125q-0.609375 0.46875 -1.578125 0.46875q-1.203125 0 -1.921875 -0.75q-0.703125 -0.75 -0.703125 -2.09375q0 -1.390625 0.71875 -2.15625q0.71875 -0.78125 1.859375 -0.78125q1.109375 0 1.8125 0.765625q0.703125 0.75 0.703125 2.125q0 0.078125 0 0.234375l-4.125 0q0.046875 0.921875 0.515625 1.40625q0.46875 0.484375 1.15625 0.484375q0.515625 0 0.875 -0.265625q0.359375 -0.28125 0.578125 -0.875zm-3.078125 -1.515625l3.09375 0q-0.0625 -0.6875 -0.359375 -1.046875q-0.453125 -0.53125 -1.15625 -0.53125q-0.640625 0 -1.09375 0.4375q-0.4375 0.421875 -0.484375 1.140625zm4.848358 1.640625l0.921875 -0.140625q0.078125 0.5625 0.4375 0.859375q0.359375 0.296875 1.0 0.296875q0.640625 0 0.953125 -0.265625q0.3125 -0.265625 0.3125 -0.625q0 -0.3125 -0.28125 -0.5q-0.1875 -0.125 -0.953125 -0.3125q-1.03125 -0.265625 -1.4375 -0.453125q-0.390625 -0.1875 -0.59375 -0.515625q-0.203125 -0.34375 -0.203125 -0.75q0 -0.359375 0.171875 -0.671875q0.171875 -0.328125 0.453125 -0.53125q0.21875 -0.15625 0.59375 -0.265625q0.390625 -0.125 0.8125 -0.125q0.65625 0 1.140625 0.1875q0.5 0.1875 0.734375 0.515625q0.234375 0.3125 0.3125 0.859375l-0.90625 0.125q-0.0625 -0.4375 -0.375 -0.671875q-0.296875 -0.234375 -0.828125 -0.234375q-0.65625 0 -0.9375 0.21875q-0.265625 0.203125 -0.265625 0.484375q0 0.1875 0.109375 0.328125q0.125 0.15625 0.359375 0.25q0.140625 0.0625 0.828125 0.25q1.0 0.265625 1.390625 0.4375q0.390625 0.15625 0.609375 0.484375q0.234375 0.3125 0.234375 0.796875q0 0.46875 -0.28125 0.890625q-0.265625 0.40625 -0.78125 0.640625q-0.515625 0.21875 -1.171875 0.21875q-1.078125 0 -1.640625 -0.4375q-0.5625 -0.453125 -0.71875 -1.34375z" fill-rule="nonzero"/><path fill="#000000" fill-opacity="0.0" d="m424.49182 107.75287l82.17322 0" fill-rule="evenodd"/><path stroke="#595959" stroke-width="1.0" stroke-linejoin="round" stroke-linecap="butt" d="m424.49185 107.75287l76.17322 0" fill-rule="evenodd"/><path fill="#595959" stroke="#595959" stroke-width="1.0" stroke-linecap="butt" d="m500.66507 109.4046l4.538086 -1.6517334l-4.538086 -1.6517334z" fill-rule="evenodd"/><path fill="#000000" fill-opacity="0.0" d="m668.05493 84.23139l103.71655 0l0 49.574806l-103.71655 0z" fill-rule="evenodd"/><path fill="#000000" d="m695.2165 101.018265l0.953125 -0.078125q0.0625 0.5625 0.3125 0.9375q0.25 0.359375 0.765625 0.59375q0.515625 0.21875 1.171875 0.21875q0.578125 0 1.015625 -0.171875q0.4375 -0.171875 0.65625 -0.46875q0.21875 -0.296875 0.21875 -0.65625q0 -0.359375 -0.21875 -0.625q-0.203125 -0.265625 -0.671875 -0.4375q-0.3125 -0.125 -1.359375 -0.375q-1.046875 -0.25 -1.46875 -0.484375q-0.546875 -0.28125 -0.828125 -0.703125q-0.265625 -0.421875 -0.265625 -0.953125q0 -0.578125 0.328125 -1.078125q0.328125 -0.5 0.953125 -0.765625q0.640625 -0.265625 1.40625 -0.265625q0.84375 0 1.484375 0.28125q0.65625 0.265625 1.0 0.796875q0.359375 0.53125 0.390625 1.203125l-0.96875 0.078125q-0.078125 -0.71875 -0.53125 -1.09375q-0.453125 -0.375 -1.328125 -0.375q-0.921875 0 -1.34375 0.34375q-0.40625 0.328125 -0.40625 0.8125q0 0.40625 0.296875 0.671875q0.28125 0.265625 1.515625 0.546875q1.234375 0.28125 1.6875 0.484375q0.671875 0.3125 0.984375 0.78125q0.3125 0.46875 0.3125 1.078125q0 0.609375 -0.34375 1.15625q-0.34375 0.53125 -1.0 0.828125q-0.65625 0.296875 -1.46875 0.296875q-1.046875 0 -1.75 -0.296875q-0.6875 -0.296875 -1.09375 -0.90625q-0.390625 -0.609375 -0.40625 -1.375zm11.107605 0.671875l0.96875 0.125q-0.234375 0.84375 -0.859375 1.3125q-0.609375 0.46875 -1.578125 0.46875q-1.203125 0 -1.921875 -0.75q-0.703125 -0.75 -0.703125 -2.09375q0 -1.390625 0.71875 -2.15625q0.71875 -0.78125 1.859375 -0.78125q1.109375 0 1.8125 0.765625q0.703125 0.75 0.703125 2.125q0 0.078125 0 0.234375l-4.125 0q0.046875 0.921875 0.515625 1.40625q0.46875 0.484375 1.15625 0.484375q0.515625 0 0.875 -0.265625q0.359375 -0.28125 0.578125 -0.875zm-3.078125 -1.515625l3.09375 0q-0.0625 -0.6875 -0.359375 -1.046875q-0.453125 -0.53125 -1.15625 -0.53125q-0.640625 0 -1.09375 0.4375q-0.4375 0.421875 -0.484375 1.140625zm8.739014 5.421875l0 -2.71875q-0.21875 0.3125 -0.609375 0.515625q-0.390625 0.203125 -0.828125 0.203125q-0.984375 0 -1.703125 -0.78125q-0.703125 -0.796875 -0.703125 -2.15625q0 -0.828125 0.28125 -1.484375q0.296875 -0.671875 0.84375 -1.015625q0.546875 -0.34375 1.203125 -0.34375q1.03125 0 1.609375 0.875l0 -0.75l0.84375 0l0 7.65625l-0.9375 0zm-2.875 -4.90625q0 1.0625 0.4375 1.609375q0.453125 0.53125 1.078125 0.53125q0.59375 0 1.015625 -0.5q0.4375 -0.515625 0.4375 -1.546875q0 -1.109375 -0.453125 -1.65625q-0.453125 -0.5625 -1.0625 -0.5625q-0.609375 0 -1.03125 0.515625q-0.421875 0.515625 -0.421875 1.609375zm8.910889 2.78125l0 -0.8125q-0.65625 0.9375 -1.75 0.9375q-0.5 0 -0.921875 -0.1875q-0.421875 -0.1875 -0.625 -0.46875q-0.203125 -0.28125 -0.296875 -0.703125q-0.046875 -0.265625 -0.046875 -0.875l0 -3.421875l0.9375 0l0 3.0625q0 0.734375 0.046875 1.0q0.09375 0.359375 0.375 0.578125q0.296875 0.203125 0.703125 0.203125q0.421875 0 0.796875 -0.203125q0.375 -0.21875 0.515625 -0.59375q0.15625 -0.375 0.15625 -1.078125l0 -2.96875l0.9375 0l0 5.53125l-0.828125 0zm6.0827637 -1.78125l0.96875 0.125q-0.234375 0.84375 -0.859375 1.3125q-0.609375 0.46875 -1.578125 0.46875q-1.203125 0 -1.921875 -0.75q-0.703125 -0.75 -0.703125 -2.09375q0 -1.390625 0.71875 -2.15625q0.71875 -0.78125 1.859375 -0.78125q1.109375 0 1.8125 0.765625q0.703125 0.75 0.703125 2.125q0 0.078125 0 0.234375l-4.125 0q0.046875 0.921875 0.515625 1.40625q0.46875 0.484375 1.15625 0.484375q0.515625 0 0.875 -0.265625q0.359375 -0.28125 0.578125 -0.875zm-3.078125 -1.515625l3.09375 0q-0.0625 -0.6875 -0.359375 -1.046875q-0.453125 -0.53125 -1.15625 -0.53125q-0.640625 0 -1.09375 0.4375q-0.4375 0.421875 -0.484375 1.140625zm5.2233276 3.296875l0 -5.53125l0.84375 0l0 0.796875q0.609375 -0.921875 1.75 -0.921875q0.5 0 0.921875 0.1875q0.421875 0.171875 0.625 0.46875q0.21875 0.296875 0.296875 0.6875q0.046875 0.265625 0.046875 0.921875l0 3.390625l-0.9375 0l0 -3.359375q0 -0.578125 -0.109375 -0.859375q-0.109375 -0.28125 -0.390625 -0.453125q-0.265625 -0.171875 -0.640625 -0.171875q-0.59375 0 -1.03125 0.390625q-0.4375 0.375 -0.4375 1.4375l0 3.015625l-0.9375 0zm7.9733887 -0.84375l0.125 0.828125q-0.390625 0.09375 -0.703125 0.09375q-0.5 0 -0.78125 -0.15625q-0.28125 -0.171875 -0.40625 -0.4375q-0.109375 -0.265625 -0.109375 -1.109375l0 -3.171875l-0.6875 0l0 -0.734375l0.6875 0l0 -1.359375l0.9375 -0.5625l0 1.921875l0.9375 0l0 0.734375l-0.9375 0l0 3.234375q0 0.390625 0.046875 0.515625q0.046875 0.109375 0.15625 0.1875q0.109375 0.0625 0.328125 0.0625q0.15625 0 0.40625 -0.046875zm0.9137573 -5.703125l0 -1.078125l0.9375 0l0 1.078125l-0.9375 0zm0 6.546875l0 -5.53125l0.9375 0l0 5.53125l-0.9375 0zm5.9768677 -0.6875q-0.53125 0.453125 -1.015625 0.640625q-0.46875 0.171875 -1.015625 0.171875q-0.921875 0 -1.40625 -0.4375q-0.484375 -0.453125 -0.484375 -1.140625q0 -0.40625 0.171875 -0.734375q0.1875 -0.34375 0.484375 -0.546875q0.3125 -0.203125 0.6875 -0.3125q0.265625 -0.0625 0.828125 -0.140625q1.125 -0.125 1.671875 -0.3125q0 -0.203125 0 -0.25q0 -0.578125 -0.265625 -0.8125q-0.359375 -0.3125 -1.0625 -0.3125q-0.65625 0 -0.984375 0.234375q-0.3125 0.234375 -0.453125 0.8125l-0.921875 -0.125q0.125 -0.578125 0.40625 -0.9375q0.296875 -0.375 0.828125 -0.5625q0.546875 -0.203125 1.25 -0.203125q0.71875 0 1.15625 0.171875q0.4375 0.171875 0.640625 0.421875q0.21875 0.25 0.296875 0.640625q0.046875 0.234375 0.046875 0.859375l0 1.25q0 1.296875 0.0625 1.65625q0.0625 0.34375 0.234375 0.65625l-0.96875 0q-0.15625 -0.296875 -0.1875 -0.6875zm-0.078125 -2.078125q-0.515625 0.203125 -1.53125 0.34375q-0.578125 0.078125 -0.828125 0.1875q-0.234375 0.109375 -0.359375 0.3125q-0.125 0.1875 -0.125 0.4375q0 0.375 0.28125 0.625q0.28125 0.25 0.828125 0.25q0.53125 0 0.953125 -0.234375q0.421875 -0.234375 0.625 -0.65625q0.15625 -0.3125 0.15625 -0.9375l0 -0.328125zm2.3796387 2.765625l0 -7.625l0.9375 0l0 7.625l-0.9375 0z" fill-rule="nonzero"/><path fill="#000000" d="m697.2703 114.44014l0.921875 0.125q-0.15625 0.953125 -0.78125 1.5q-0.625 0.53125 -1.53125 0.53125q-1.125 0 -1.8125 -0.734375q-0.6875 -0.75 -0.6875 -2.125q0 -0.90625 0.296875 -1.578125q0.296875 -0.671875 0.890625 -1.0q0.609375 -0.34375 1.328125 -0.34375q0.890625 0 1.46875 0.46875q0.578125 0.453125 0.734375 1.28125l-0.90625 0.140625q-0.140625 -0.546875 -0.46875 -0.828125q-0.328125 -0.28125 -0.796875 -0.28125q-0.703125 0 -1.15625 0.515625q-0.4375 0.5 -0.4375 1.59375q0 1.109375 0.421875 1.625q0.4375 0.5 1.125 0.5q0.546875 0 0.90625 -0.34375q0.375 -0.34375 0.484375 -1.046875zm1.375 -0.734375q0 -1.53125 0.84375 -2.265625q0.71875 -0.625 1.734375 -0.625q1.140625 0 1.859375 0.75q0.734375 0.75 0.734375 2.0625q0 1.0625 -0.328125 1.6875q-0.3125 0.609375 -0.921875 0.953125q-0.609375 0.328125 -1.34375 0.328125q-1.15625 0 -1.875 -0.734375q-0.703125 -0.75 -0.703125 -2.15625zm0.953125 0q0 1.0625 0.46875 1.59375q0.46875 0.53125 1.15625 0.53125q0.703125 0 1.15625 -0.53125q0.46875 -0.53125 0.46875 -1.625q0 -1.015625 -0.46875 -1.546875q-0.453125 -0.53125 -1.15625 -0.53125q-0.6875 0 -1.15625 0.53125q-0.46875 0.515625 -0.46875 1.578125zm5.3170776 2.765625l0 -5.53125l0.84375 0l0 0.796875q0.609375 -0.921875 1.75 -0.921875q0.5 0 0.921875 0.1875q0.421875 0.171875 0.625 0.46875q0.21875 0.296875 0.296875 0.6875q0.046875 0.265625 0.046875 0.921875l0 3.390625l-0.9375 0l0 -3.359375q0 -0.578125 -0.109375 -0.859375q-0.109375 -0.28125 -0.390625 -0.453125q-0.265625 -0.171875 -0.640625 -0.171875q-0.59375 0 -1.03125 0.390625q-0.4375 0.375 -0.4375 1.4375l0 3.015625l-0.9375 0zm7.4577637 0l-2.09375 -5.53125l0.984375 0l1.1875 3.3125q0.1875 0.53125 0.359375 1.109375q0.109375 -0.4375 0.34375 -1.046875l1.21875 -3.375l0.96875 0l-2.09375 5.53125l-0.875 0zm3.453125 -2.765625q0 -1.53125 0.84375 -2.265625q0.71875 -0.625 1.734375 -0.625q1.140625 0 1.859375 0.75q0.734375 0.75 0.734375 2.0625q0 1.0625 -0.328125 1.6875q-0.3125 0.609375 -0.921875 0.953125q-0.609375 0.328125 -1.34375 0.328125q-1.15625 0 -1.875 -0.734375q-0.703125 -0.75 -0.703125 -2.15625zm0.953125 0q0 1.0625 0.46875 1.59375q0.46875 0.53125 1.15625 0.53125q0.703125 0 1.15625 -0.53125q0.46875 -0.53125 0.46875 -1.625q0 -1.015625 -0.46875 -1.546875q-0.453125 -0.53125 -1.15625 -0.53125q-0.6875 0 -1.15625 0.53125q-0.46875 0.515625 -0.46875 1.578125zm5.3015137 2.765625l0 -7.625l0.9375 0l0 7.625l-0.9375 0zm6.0081177 0l0 -0.8125q-0.65625 0.9375 -1.75 0.9375q-0.5 0 -0.921875 -0.1875q-0.421875 -0.1875 -0.625 -0.46875q-0.203125 -0.28125 -0.296875 -0.703125q-0.046875 -0.265625 -0.046875 -0.875l0 -3.421875l0.9375 0l0 3.0625q0 0.734375 0.046875 1.0q0.09375 0.359375 0.375 0.578125q0.296875 0.203125 0.703125 0.203125q0.421875 0 0.796875 -0.203125q0.375 -0.21875 0.515625 -0.59375q0.15625 -0.375 0.15625 -1.078125l0 -2.96875l0.9375 0l0 5.53125l-0.828125 0zm4.3483276 -0.84375l0.125 0.828125q-0.390625 0.09375 -0.703125 0.09375q-0.5 0 -0.78125 -0.15625q-0.28125 -0.171875 -0.40625 -0.4375q-0.109375 -0.265625 -0.109375 -1.109375l0 -3.171875l-0.6875 0l0 -0.734375l0.6875 0l0 -1.359375l0.9375 -0.5625l0 1.921875l0.9375 0l0 0.734375l-0.9375 0l0 3.234375q0 0.390625 0.046875 0.515625q0.046875 0.109375 0.15625 0.1875q0.109375 0.0625 0.328125 0.0625q0.15625 0 0.40625 -0.046875zm0.91381836 -5.703125l0 -1.078125l0.9375 0l0 1.078125l-0.9375 0zm0 6.546875l0 -5.53125l0.9375 0l0 5.53125l-0.9375 0zm2.0236816 -2.765625q0 -1.53125 0.84375 -2.265625q0.71875 -0.625 1.734375 -0.625q1.140625 0 1.859375 0.75q0.734375 0.75 0.734375 2.0625q0 1.0625 -0.328125 1.6875q-0.3125 0.609375 -0.921875 0.953125q-0.609375 0.328125 -1.34375 0.328125q-1.15625 0 -1.875 -0.734375q-0.703125 -0.75 -0.703125 -2.15625zm0.953125 0q0 1.0625 0.46875 1.59375q0.46875 0.53125 1.15625 0.53125q0.703125 0 1.15625 -0.53125q0.46875 -0.53125 0.46875 -1.625q0 -1.015625 -0.46875 -1.546875q-0.453125 -0.53125 -1.15625 -0.53125q-0.6875 0 -1.15625 0.53125q-0.46875 0.515625 -0.46875 1.578125zm5.3171387 2.765625l0 -5.53125l0.84375 0l0 0.796875q0.609375 -0.921875 1.75 -0.921875q0.5 0 0.921875 0.1875q0.421875 0.171875 0.625 0.46875q0.21875 0.296875 0.296875 0.6875q0.046875 0.265625 0.046875 0.921875l0 3.390625l-0.9375 0l0 -3.359375q0 -0.578125 -0.109375 -0.859375q-0.109375 -0.28125 -0.390625 -0.453125q-0.265625 -0.171875 -0.640625 -0.171875q-0.59375 0 -1.03125 0.390625q-0.4375 0.375 -0.4375 1.4375l0 3.015625l-0.9375 0z" fill-rule="nonzero"/><path fill="#000000" fill-opacity="0.0" d="m678.824 106.630066l82.17322 0" fill-rule="evenodd"/><path stroke="#595959" stroke-width="1.0" stroke-linejoin="round" stroke-linecap="butt" d="m678.824 106.630066l76.17322 0" fill-rule="evenodd"/><path fill="#595959" stroke="#595959" stroke-width="1.0" stroke-linecap="butt" d="m754.9972 108.2818l4.538147 -1.6517334l-4.538147 -1.6517334z" fill-rule="evenodd"/><path fill="#000000" fill-opacity="0.0" d="m997.70264 79.42275l94.48181 0l0 35.998955l-94.48181 0z" fill-rule="evenodd"/><path fill="#000000" d="m1021.05347 98.66275l0 -7.625l0.9375 0l0 7.625l-0.9375 0zm2.3831177 -6.546875l0 -1.078125l0.93756104 0l0 1.078125l-0.93756104 0zm0 6.546875l0 -5.53125l0.93756104 0l0 5.53125l-0.93756104 0zm2.3674927 0l0 -5.53125l0.84375 0l0 0.796875q0.609375 -0.921875 1.75 -0.921875q0.5 0 0.921875 0.1875q0.421875 0.171875 0.625 0.46875q0.21875 0.296875 0.296875 0.6875q0.046875 0.265625 0.046875 0.921875l0 3.390625l-0.9375 0l0 -3.359375q0 -0.578125 -0.109375 -0.859375q-0.109375 -0.28125 -0.390625 -0.453125q-0.265625 -0.171875 -0.640625 -0.171875q-0.59375 0 -1.03125 0.390625q-0.4375 0.375 -0.4375 1.4375l0 3.015625l-0.9375 0zm9.707764 -1.78125l0.96875 0.125q-0.234375 0.84375 -0.859375 1.3125q-0.609375 0.46875 -1.578125 0.46875q-1.203125 0 -1.921875 -0.75q-0.703125 -0.75 -0.703125 -2.09375q0 -1.390625 0.71875 -2.15625q0.71875 -0.78125 1.859375 -0.78125q1.109375 0 1.8125 0.765625q0.703125 0.75 0.703125 2.125q0 0.078125 0 0.234375l-4.125 0q0.046875 0.921875 0.515625 1.40625q0.46875 0.484375 1.15625 0.484375q0.515625 0 0.875 -0.265625q0.359375 -0.28125 0.578125 -0.875zm-3.078125 -1.515625l3.09375 0q-0.0625 -0.6875 -0.359375 -1.046875q-0.453125 -0.53125 -1.15625 -0.53125q-0.640625 0 -1.09375 0.4375q-0.4375 0.421875 -0.484375 1.140625zm8.832764 2.609375q-0.53125 0.453125 -1.015625 0.640625q-0.46875 0.171875 -1.015625 0.171875q-0.921875 0 -1.40625 -0.4375q-0.484375 -0.453125 -0.484375 -1.140625q0 -0.40625 0.171875 -0.734375q0.1875 -0.34375 0.484375 -0.546875q0.3125 -0.203125 0.6875 -0.3125q0.265625 -0.0625 0.828125 -0.140625q1.125 -0.125 1.671875 -0.3125q0 -0.203125 0 -0.25q0 -0.578125 -0.265625 -0.8125q-0.359375 -0.3125 -1.0625 -0.3125q-0.65625 0 -0.984375 0.234375q-0.3125 0.234375 -0.453125 0.8125l-0.921875 -0.125q0.125 -0.578125 0.40625 -0.9375q0.296875 -0.375 0.828125 -0.5625q0.546875 -0.203125 1.25 -0.203125q0.71875 0 1.15625 0.171875q0.4375 0.171875 0.640625 0.421875q0.21875 0.25 0.296875 0.640625q0.046875 0.234375 0.046875 0.859375l0 1.25q0 1.296875 0.0625 1.65625q0.0625 0.34375 0.234375 0.65625l-0.96875 0q-0.15625 -0.296875 -0.1875 -0.6875zm-0.078125 -2.078125q-0.515625 0.203125 -1.53125 0.34375q-0.578125 0.078125 -0.828125 0.1875q-0.234375 0.109375 -0.359375 0.3125q-0.125 0.1875 -0.125 0.4375q0 0.375 0.28125 0.625q0.28125 0.25 0.828125 0.25q0.53125 0 0.953125 -0.234375q0.421875 -0.234375 0.625 -0.65625q0.15625 -0.3125 0.15625 -0.9375l0 -0.328125zm2.3796387 2.765625l0 -5.53125l0.84375 0l0 0.84375q0.328125 -0.59375 0.59375 -0.78125q0.28125 -0.1875 0.609375 -0.1875q0.46875 0 0.953125 0.3125l-0.3125 0.859375q-0.34375 -0.203125 -0.6875 -0.203125q-0.3125 0 -0.5625 0.1875q-0.234375 0.1875 -0.34375 0.515625q-0.15625 0.5 -0.15625 1.09375l0 2.890625l-0.9375 0zm6.7435303 0l0 -4.796875l-0.828125 0l0 -0.734375l0.828125 0l0 -0.578125q0 -0.5625 0.109375 -0.828125q0.125 -0.375 0.46875 -0.59375q0.34375 -0.234375 0.953125 -0.234375q0.390625 0 0.875 0.09375l-0.140625 0.828125q-0.296875 -0.0625 -0.546875 -0.0625q-0.421875 0 -0.609375 0.1875q-0.171875 0.1875 -0.171875 0.6875l0 0.5l1.078125 0l0 0.734375l-1.078125 0l0 4.796875l-0.9375 0zm2.7419434 -6.546875l0 -1.078125l0.9375 0l0 1.078125l-0.9375 0zm0 6.546875l0 -5.53125l0.9375 0l0 5.53125l-0.9375 0zm2.3518066 0l0 -7.625l0.9375 0l0 7.625l-0.9375 0zm4.4300537 -0.84375l0.125 0.828125q-0.390625 0.09375 -0.703125 0.09375q-0.5 0 -0.78125 -0.15625q-0.28125 -0.171875 -0.40625 -0.4375q-0.109375 -0.265625 -0.109375 -1.109375l0 -3.171875l-0.6875 0l0 -0.734375l0.6875 0l0 -1.359375l0.9375 -0.5625l0 1.921875l0.9375 0l0 0.734375l-0.9375 0l0 3.234375q0 0.390625 0.046875 0.515625q0.046875 0.109375 0.15625 0.1875q0.109375 0.0625 0.328125 0.0625q0.15625 0 0.40625 -0.046875zm4.6949463 -0.9375l0.96875 0.125q-0.234375 0.84375 -0.859375 1.3125q-0.609375 0.46875 -1.578125 0.46875q-1.203125 0 -1.921875 -0.75q-0.703125 -0.75 -0.703125 -2.09375q0 -1.390625 0.71875 -2.15625q0.71875 -0.78125 1.859375 -0.78125q1.109375 0 1.8125 0.765625q0.703125 0.75 0.703125 2.125q0 0.078125 0 0.234375l-4.125 0q0.046875 0.921875 0.515625 1.40625q0.46875 0.484375 1.15625 0.484375q0.515625 0 0.875 -0.265625q0.359375 -0.28125 0.578125 -0.875zm-3.078125 -1.515625l3.09375 0q-0.0625 -0.6875 -0.359375 -1.046875q-0.453125 -0.53125 -1.15625 -0.53125q-0.640625 0 -1.09375 0.4375q-0.4375 0.421875 -0.484375 1.140625zm5.2077637 3.296875l0 -5.53125l0.84375 0l0 0.84375q0.328125 -0.59375 0.59375 -0.78125q0.28125 -0.1875 0.609375 -0.1875q0.46875 0 0.953125 0.3125l-0.3125 0.859375q-0.34375 -0.203125 -0.6875 -0.203125q-0.3125 0 -0.5625 0.1875q-0.234375 0.1875 -0.34375 0.515625q-0.15625 0.5 -0.15625 1.09375l0 2.890625l-0.9375 0z" fill-rule="nonzero"/><path fill="#000000" fill-opacity="0.0" d="m1000.6705 106.07903l94.13983 0" fill-rule="evenodd"/><path stroke="#595959" stroke-width="1.0" stroke-linejoin="round" stroke-linecap="butt" d="m1000.6704 106.07904l88.140015 0" fill-rule="evenodd"/><path fill="#595959" stroke="#595959" stroke-width="1.0" stroke-linecap="butt" d="m1088.8104 107.73077l4.538086 -1.6517258l-4.538086 -1.6517334z" fill-rule="evenodd"/><path fill="#000000" fill-opacity="0.0" d="m364.57205 18.249344l49.13385 0l0 36.0l-49.13385 0z" fill-rule="evenodd"/><path fill="#000000" d="m391.0218 42.609344l-7.796875 0l0 -1.546875l3.671875 -3.921875q0.765625 -0.828125 1.125 -1.4375q0.359375 -0.625 0.359375 -1.1875q0 -0.75 -0.390625 -1.1875q-0.375 -0.4375 -1.078125 -0.4375q-0.765625 0 -1.21875 0.53125q-0.4375 0.53125 -0.4375 1.390625l-2.265625 0q0 -1.046875 0.5 -1.90625q0.5 -0.859375 1.40625 -1.34375q0.90625 -0.484375 2.046875 -0.484375q1.765625 0 2.734375 0.84375q0.96875 0.84375 0.96875 2.375q0 0.84375 -0.4375 1.71875q-0.4375 0.875 -1.5 2.046875l-2.578125 2.71875l4.890625 0l0 1.828125z" fill-rule="nonzero"/><path fill="#000000" d="m392.74835 41.84372q0 -0.375 0.21875 -0.625q0.234375 -0.25 0.671875 -0.25q0.453125 0 0.671875 0.25q0.234375 0.25 0.234375 0.625q0 0.359375 -0.234375 0.609375q-0.21875 0.25 -0.671875 0.25q-0.4375 0 -0.671875 -0.25q-0.21875 -0.25 -0.21875 -0.609375z" fill-rule="nonzero"/><path fill="#000000" fill-opacity="0.0" d="m618.92114 18.249344l49.13385 0l0 36.0l-49.13385 0z" fill-rule="evenodd"/><path fill="#000000" d="m639.87085 35.921844l1.203125 0q0.859375 0 1.265625 -0.421875q0.421875 -0.4375 0.421875 -1.15625q0 -0.6875 -0.421875 -1.0625q-0.40625 -0.390625 -1.125 -0.390625q-0.640625 0 -1.078125 0.359375q-0.4375 0.359375 -0.4375 0.921875l-2.265625 0q0 -0.890625 0.484375 -1.59375q0.484375 -0.703125 1.34375 -1.09375q0.859375 -0.40625 1.90625 -0.40625q1.796875 0 2.8125 0.859375q1.03125 0.859375 1.03125 2.375q0 0.78125 -0.484375 1.4375q-0.46875 0.65625 -1.234375 1.015625q0.953125 0.34375 1.421875 1.03125q0.484375 0.6875 0.484375 1.625q0 1.515625 -1.109375 2.4375q-1.109375 0.90625 -2.921875 0.90625q-1.703125 0 -2.796875 -0.890625q-1.078125 -0.90625 -1.078125 -2.390625l2.265625 0q0 0.640625 0.46875 1.046875q0.484375 0.40625 1.1875 0.40625q0.8125 0 1.265625 -0.421875q0.453125 -0.421875 0.453125 -1.125q0 -1.703125 -1.875 -1.703125l-1.1875 0l0 -1.765625z" fill-rule="nonzero"/><path fill="#000000" d="m647.0974 41.84372q0 -0.375 0.21875 -0.625q0.234375 -0.25 0.671875 -0.25q0.453125 0 0.671875 0.25q0.234375 0.25 0.234375 0.625q0 0.359375 -0.234375 0.609375q-0.21875 0.25 -0.671875 0.25q-0.4375 0 -0.671875 -0.25q-0.21875 -0.25 -0.21875 -0.609375z" fill-rule="nonzero"/><path fill="#000000" fill-opacity="0.0" d="m857.2387 44.711285l49.13385 0l0 36.000004l-49.13385 0z" fill-rule="evenodd"/><path fill="#000000" d="m882.5635 64.79004l1.296875 0l0 1.8125l-1.296875 0l0 2.46875l-2.25 0l0 -2.46875l-4.671875 0l-0.09375 -1.421875l4.734375 -7.484379l2.28125 0l0 7.093754zm-4.765625 0l2.515625 0l0 -4.015629l-0.15625 0.25l-2.359375 3.7656288z" fill-rule="nonzero"/><path fill="#000000" d="m885.41504 68.305664q0 -0.375 0.21875 -0.625q0.234375 -0.25 0.671875 -0.25q0.453125 0 0.671875 0.25q0.234375 0.25 0.234375 0.625q0 0.359375 -0.234375 0.609375q-0.21875 0.25 -0.671875 0.25q-0.4375 0 -0.671875 -0.25q-0.21875 -0.25 -0.21875 -0.609375z" fill-rule="nonzero"/></g></svg>